<svg width="37" height="30" viewBox="0 0 37 30" fill="none" xmlns="http://www.w3.org/2000/svg">
<path d="M11.4778 18.1501V18.7324H18.2436H25.0094V18.1501V17.5678H18.2436H11.4778V18.1501Z" fill="#9B3DFD"/>
<path d="M12.5651 20.9323V21.4499H18.2436H23.9221V20.9323V20.4147H18.2436H12.5651V20.9323Z" fill="#9B3DFD"/>
<path fill-rule="evenodd" clip-rule="evenodd" d="M28.9489 13.9996C28.6649 14.0801 28.251 14.3694 27.9038 14.7303C26.8669 15.8076 26.7899 17.2528 27.7059 18.4429C28.662 19.6853 30.5021 19.733 31.5571 18.5424C32.8524 17.0807 32.2174 14.6092 30.398 14.0305C29.7213 13.8152 29.608 13.8129 28.9489 13.9996Z" fill="#9B3DFD"/>
<path fill-rule="evenodd" clip-rule="evenodd" d="M6.09131 14.0194C4.63339 14.5168 3.84843 16.2384 4.41592 17.6936C5.15823 19.597 7.57339 20.0117 8.78061 18.4429C9.629 17.3405 9.61595 15.9078 8.74811 14.879C8.03999 14.0396 7.00941 13.7061 6.09131 14.0194Z" fill="#9B3DFD"/>
<path fill-rule="evenodd" clip-rule="evenodd" d="M7.0169 1.63582C7.41258 0.995918 8.14752 0.418776 8.87968 0.173038C9.2477 0.0494573 11.47 0.00869512 18.191 0.00209552L18.546 0.00174242C26.6013 -0.00630507 27.6301 -0.00733283 28.3535 0.49553C28.4594 0.569155 28.5588 0.65358 28.6727 0.750367L28.7071 0.779554C29.4418 1.40263 29.7453 1.99673 30.8685 5.01016L31.9166 7.82236H33.1446C34.2695 7.82236 34.4205 7.85251 34.9431 8.18172C35.7077 8.66297 36.062 9.34778 36.2973 10.7987C36.4011 11.4392 36.4862 12.0361 36.4865 12.125C36.4867 12.2431 36.1795 12.2868 35.3519 12.2868H34.217L34.6293 13.1722C35.3619 14.7452 35.395 15.1354 35.3974 22.2227V22.2363C35.3994 28.1313 35.3997 29.0787 34.9583 29.5247C34.8738 29.6102 34.773 29.6772 34.653 29.7571L34.6516 29.758C34.286 30.0013 34.0929 30.021 32.3997 29.9873L30.5475 29.9504L30.1343 29.4671C29.7523 29.0203 29.721 28.92 29.721 28.1407V26.1396H18.2432H6.76548V28.1407C6.76548 28.92 6.73419 29.0203 6.35216 29.4671L5.93896 29.9504L4.08681 29.9873C2.39354 30.021 2.20047 30.0013 1.83487 29.758L1.83346 29.7571C1.71345 29.6772 1.61272 29.6102 1.5282 29.5247C1.08682 29.0787 1.08713 28.1313 1.08905 22.2364L1.08906 22.2227C1.09148 15.1354 1.12458 14.7452 1.85722 13.1722L2.26946 12.2868H1.13461C0.307 12.2868 -0.000241495 12.2431 1.42406e-07 12.125C0.00024178 12.0361 0.0854189 11.4392 0.189202 10.7987C0.424436 9.34778 0.778797 8.66297 1.54334 8.18172C2.066 7.85251 2.21702 7.82236 3.34184 7.82236H4.56984L5.61565 5.01637C6.19087 3.4731 6.82142 1.95182 7.0169 1.63582ZM30.0878 5.94601C28.6885 2.23561 28.4453 1.78709 27.5994 1.35721C27.2578 1.18342 26.0606 1.15819 18.225 1.15884C17.6907 1.15889 17.187 1.15879 16.7121 1.1587H16.7117H16.7113H16.7109H16.7105H16.7101H16.7098H16.7095C9.8675 1.15739 9.00475 1.15723 8.47721 1.60755C8.40109 1.67252 8.33195 1.74688 8.25283 1.83197C8.21475 1.87292 8.17436 1.91636 8.12976 1.96244C7.82639 2.27585 7.44943 3.14609 6.39553 5.96619C6.27007 6.30183 6.12861 6.71529 5.9925 7.11311C5.8538 7.51851 5.72065 7.90767 5.61565 8.18172H30.8685C30.7667 7.91507 30.6404 7.54101 30.5078 7.14835C30.3676 6.73339 30.2204 6.29767 30.0878 5.94601ZM31.9295 9.25888C31.7028 9.44405 31.4974 9.57398 31.4729 9.54771L4.99295 9.56932C4.96226 9.56932 4.75892 9.42374 4.54109 9.24581C4.19917 8.96655 4.02 8.9223 3.22936 8.9223C2.41891 8.9223 2.27079 8.96099 1.93926 9.25978C1.47991 9.67375 1.38035 9.86966 1.27162 10.5722L1.18656 11.1222H2.70742C3.54385 11.1222 4.22829 11.1492 4.22829 11.1823C4.22829 11.2155 3.88335 11.8124 3.46169 12.5087C3.36879 12.6622 3.28291 12.8012 3.20351 12.9296L3.20338 12.9299C2.94954 13.3406 2.76194 13.6442 2.62286 13.9714C2.22892 14.8983 2.22429 16.0149 2.20653 20.2946L2.20653 20.2947C2.20457 20.7671 2.20244 21.278 2.19962 21.8315L2.18359 24.975H5.79893H18.2432H30.6876H34.3029L34.2869 21.8315L34.2517 14.9396L33.8714 14.08C33.6622 13.6071 33.2138 12.78 32.8746 12.2418C32.5356 11.7036 32.2582 11.2315 32.2582 11.1927C32.2582 11.1539 32.9426 11.1222 33.7791 11.1222H35.2999L35.2149 10.5722C35.1061 9.86966 35.0066 9.67375 34.5472 9.25978C34.2157 8.96099 34.0676 8.9223 33.2571 8.9223C32.4571 8.9223 32.2894 8.96474 31.9295 9.25888ZM6.09131 14.0194C4.63339 14.5168 3.84843 16.2384 4.41592 17.6936C5.15823 19.597 7.57339 20.0117 8.78061 18.4429C9.629 17.3405 9.61595 15.9078 8.74811 14.879C8.03999 14.0396 7.00941 13.7061 6.09131 14.0194ZM28.9489 13.9996C28.6649 14.0801 28.251 14.3694 27.9038 14.7303C26.8669 15.8076 26.7899 17.2528 27.7059 18.4429C28.662 19.6853 30.5021 19.733 31.5571 18.5424C32.8524 17.0807 32.2174 14.6092 30.398 14.0305C29.7213 13.8152 29.608 13.8129 28.9489 13.9996ZM11.4778 18.1501V18.7324H18.2436H25.0094V18.1501V17.5678H18.2436H11.4778V18.1501ZM12.5651 20.9323V21.4499H18.2436H23.9221V20.9323V20.4147H18.2436H12.5651V20.9323ZM5.79893 27.3466C5.79893 28.3163 5.75894 28.5957 5.59958 28.7377C5.34574 28.9636 2.9818 29.0582 2.50167 28.8616L2.16446 28.7234L2.17765 26.1396L5.79893 26.1608V27.3466ZM33.9848 28.8616L34.322 28.7234L34.3088 26.1396L30.6876 26.1608V27.3466C30.6876 28.3163 30.7275 28.5957 30.8869 28.7377C31.1407 28.9636 33.5047 29.0582 33.9848 28.8616Z" fill="#9B3DFD"/>
</svg>
