<svg width="22" height="30" viewBox="0 0 22 30" fill="none" xmlns="http://www.w3.org/2000/svg">
<path fill-rule="evenodd" clip-rule="evenodd" d="M1.84772 0.157608C1.20002 0.336742 0.537114 0.870341 0.227547 1.46188C0.00980839 1.87786 0 2.46429 0 14.9948C0 27.4341 0.0112791 28.1148 0.223378 28.5277C0.557465 29.1781 1.316 29.7312 2.0706 29.8747C2.94892 30.0418 18.1276 30.0418 19.0059 29.8747C19.7605 29.7312 20.5191 29.1781 20.8532 28.5277C21.0653 28.1149 21.0767 27.432 21.0792 15.0185C21.0822 0.494898 21.1426 1.53655 20.2506 0.724903C19.4366 -0.0156569 19.5614 -0.00641756 10.4853 0.0017348C3.99642 0.0074958 2.27841 0.0385833 1.84772 0.157608ZM19.5589 1.43307C19.9718 1.83265 19.9785 1.85493 19.9785 2.81897V3.79889H10.5383H1.09801V2.84484C1.09801 1.78938 1.21436 1.54123 1.87861 1.18002C2.24911 0.978496 2.56174 0.972083 10.701 0.99904L19.1392 1.02708L19.5589 1.43307ZM5.90396 2.08146C5.57416 2.37385 5.83089 2.8206 6.32877 2.8206C6.69204 2.8206 6.91591 2.46364 6.73764 2.16841C6.59212 1.92732 6.13187 1.87939 5.90396 2.08146ZM7.98241 2.14124C7.91841 2.24961 7.91486 2.43679 7.9742 2.57603C8.07743 2.81843 8.09986 2.8206 10.5383 2.8206C12.9767 2.8206 12.9991 2.81843 13.1023 2.57603C13.1617 2.43679 13.1581 2.24961 13.0941 2.14124C12.9927 1.96982 12.7408 1.95102 10.5383 1.95102C8.33574 1.95102 8.0838 1.96982 7.98241 2.14124ZM19.9785 14.5057V24.3428H10.5383H1.09801V14.5057V4.66847H10.5383H19.9785V14.5057ZM19.9785 26.7195C19.9785 28.2591 19.8788 28.5061 19.1155 28.856C18.5891 29.0974 2.48745 29.0974 1.961 28.856C1.19769 28.5061 1.09801 28.2591 1.09801 26.7195V25.3211H10.5383H19.9785V26.7195ZM10.0731 26.3046C9.74565 26.421 9.40176 27.0679 9.51565 27.3531C9.87757 28.2599 11.1977 28.2658 11.557 27.3623C11.6785 27.0567 11.3954 26.5219 11.0214 26.3505C10.6272 26.1696 10.4732 26.1622 10.0731 26.3046Z" fill="#FBF248"/>
</svg>
