<svg width="30" height="21" viewBox="0 0 30 21" fill="none" xmlns="http://www.w3.org/2000/svg">
<path fill-rule="evenodd" clip-rule="evenodd" d="M0.18835 0.190909C-0.0848916 0.465627 -0.0574534 0.896509 0.248638 1.13849L0.498809 1.33636H14.9992H29.4997L29.7498 1.13849C30.0559 0.896509 30.0834 0.465627 29.8101 0.190909C29.6218 0.00162272 29.4937 0 14.9992 0C0.50479 0 0.376619 0.00162272 0.18835 0.190909ZM0.206294 10.0264C-0.0645741 10.2801 -0.0645741 10.7199 0.206294 10.9735C0.413457 11.1677 0.452288 11.1682 15.0172 11.1682C29.4937 11.1682 29.6218 11.1666 29.8101 10.9773C29.9156 10.8712 30 10.6591 30 10.5C30 10.3409 29.9156 10.1288 29.8101 10.0227C29.6218 9.83344 29.4937 9.83182 15.0172 9.83182C0.452288 9.83182 0.413457 9.8323 0.206294 10.0264ZM0.248638 19.8615C-0.0574534 20.1035 -0.0848916 20.5344 0.18835 20.8091C0.376619 20.9984 0.50479 21 14.9992 21C29.4937 21 29.6218 20.9984 29.8101 20.8091C30.0834 20.5344 30.0559 20.1035 29.7498 19.8615L29.4997 19.6636H14.9992H0.498809L0.248638 19.8615Z" fill="#969CA4"/>
</svg>
