<svg width="40" height="40" viewBox="0 0 40 40" fill="none" xmlns="http://www.w3.org/2000/svg">
<path fill-rule="evenodd" clip-rule="evenodd" d="M1.45349 0.220465C0.883488 0.484302 0.42 0.963721 0.180581 1.53698C0.02 1.92151 0 3.96209 0 20C0 36.0379 0.02 38.0785 0.180581 38.463C0.42 39.0363 0.883488 39.5157 1.45349 39.7795C1.89802 39.9854 2.54163 39.995 15.9947 39.9974L30.0706 40L30.6799 39.6964C31.1556 39.4593 31.3642 39.2619 31.6319 38.7952L31.9745 38.1977L31.9757 34.7124L31.9767 31.2272L31.1628 32.0349L30.3488 32.8426V35.4149C30.3488 37.7592 30.33 38.0043 30.1362 38.1797C29.9408 38.3565 28.7934 38.3721 16.0083 38.3721C2.24802 38.3721 2.09047 38.3695 1.86047 38.1395C1.62988 37.909 1.62791 37.752 1.62791 20C1.62791 2.24802 1.62988 2.09105 1.86047 1.86047C2.09047 1.63047 2.24802 1.62791 16.0285 1.62791C29.3813 1.62791 29.972 1.63674 30.1564 1.84058C30.3231 2.02477 30.3488 2.39372 30.3488 4.60535V7.15744L31.1628 7.96512L31.9767 8.77279L31.9757 5.28756L31.9745 1.80233L31.6319 1.20477C31.3642 0.73814 31.1556 0.540698 30.6799 0.303605L30.0706 0L15.9947 0.00255814C2.54163 0.005 1.89802 0.0146512 1.45349 0.220465ZM29.8837 10.6977C29.3399 11.2415 29.3902 11.3074 33.4586 15.3772L37.2662 19.186H25.2829C13.3841 19.186 13.2979 19.1877 13.0452 19.4231C12.7135 19.7321 12.7135 20.2679 13.0452 20.5769C13.2979 20.8123 13.3841 20.814 25.2813 20.814H37.2628L33.3988 24.6843C31.2736 26.8129 29.5349 28.6372 29.5349 28.7384C29.5349 29.1007 29.9971 29.5349 30.383 29.5349C30.7098 29.5349 31.2449 29.0397 35.3745 24.9148C39.0315 21.262 40 20.2329 40 20C40 19.7671 39.0315 18.738 35.3745 15.0852C30.4348 10.1512 30.4322 10.1492 29.8837 10.6977Z" fill="#969CA4"/>
</svg>
