<svg width="28" height="28" viewBox="0 0 28 28" fill="none" xmlns="http://www.w3.org/2000/svg">
<path fill-rule="evenodd" clip-rule="evenodd" d="M11.9229 0.10678C8.8099 0.613959 6.31924 1.88492 4.10271 4.0974C1.51799 6.67739 0.153064 9.79039 0.0121925 13.4268C-0.115736 16.7268 0.761145 19.6044 2.73246 22.3543C3.24551 23.07 4.92258 24.7484 5.63758 25.2619C7.70828 26.749 9.90292 27.6213 12.3412 27.9268C13.5267 28.0754 15.6297 27.9893 16.7849 27.7449C19.5493 27.1601 21.8666 25.9074 23.8346 23.9339C25.2842 22.4802 26.1576 21.208 26.8883 19.4862C28.3101 16.1355 28.371 12.2531 27.0543 8.89058C26.678 7.92946 25.8835 6.45051 25.7435 6.45051C25.6882 6.45051 25.4703 6.62655 25.2592 6.84181L24.8755 7.23311L25.2309 7.88439C25.7228 8.78588 26.1768 9.96741 26.4541 11.0669C26.7729 12.3316 26.8556 14.6735 26.63 16.0491C25.8615 20.7357 22.5279 24.6443 18.0252 26.138C16.4251 26.6689 15.4505 26.8011 13.5648 26.7432C11.4653 26.6786 10.2511 26.3892 8.45138 25.524C5.29989 24.0092 2.95241 21.3408 1.8578 18.0289C1.38678 16.6037 1.22605 15.577 1.22605 13.9925C1.22605 12.4081 1.38678 11.3814 1.8578 9.95623C3.27813 5.65869 6.76242 2.5197 11.2837 1.46443C12.4067 1.20233 14.848 1.13915 16.0313 1.34154C17.8409 1.65103 19.5631 2.33594 21.072 3.34613L21.8825 3.88871V4.57273V5.25683L21.1723 5.96348C20.6409 6.49213 20.432 6.64811 20.343 6.58254C20.2776 6.53427 20.0288 6.34705 19.79 6.1664C16.3896 3.59333 11.575 3.60548 8.14109 6.19577C2.97493 10.0927 2.95029 17.8283 8.09144 21.7532C12.3625 25.0138 18.4813 24.1826 21.7463 19.8984C24.0092 16.9292 24.3747 12.829 22.6681 9.55605C22.0915 8.45013 22.1307 8.47249 21.6311 8.96502L21.204 9.38605L21.6314 10.2474C22.3141 11.6235 22.4489 12.2499 22.4473 14.0369C22.4461 15.4243 22.4266 15.6089 22.2042 16.3384C21.3373 19.181 19.1763 21.3438 16.3361 22.2114C15.6112 22.4328 15.4154 22.4539 14.0366 22.4594C12.2621 22.4664 11.6819 22.3395 10.2245 21.6254C8.08763 20.5784 6.49832 18.688 5.77969 16.3384C5.55486 15.6031 5.53713 15.4322 5.53713 13.9925C5.53713 12.5529 5.55486 12.382 5.77969 11.6467C6.65001 8.80132 8.80848 6.64119 11.6484 5.77368C12.3734 5.5523 12.5692 5.53118 13.948 5.52568C15.2646 5.52045 15.5447 5.54538 16.1643 5.72293C17.0753 5.98406 18.318 6.58689 19.0369 7.11661L19.6017 7.53275L18.5113 8.6267L17.421 9.72056L17.145 9.50991C16.4123 8.95047 14.9962 8.4944 13.9923 8.4944C11.9962 8.4944 10.006 9.72934 9.12746 11.5133C8.29987 13.1934 8.29987 14.7916 9.12746 16.4718C9.63633 17.5051 10.4827 18.3522 11.5151 18.8615C13.1939 19.6898 14.7907 19.6898 16.4695 18.8615C18.949 17.6382 20.1451 14.51 19.095 11.9945L18.9509 11.6494L18.4969 12.1037L18.043 12.558L18.1571 13.0962C18.5949 15.1609 17.4261 17.2654 15.4256 18.0147C14.712 18.2819 13.2726 18.2819 12.5589 18.0147C11.3782 17.5724 10.4154 16.6088 9.97357 15.4271C9.70655 14.7128 9.70655 13.2722 9.97357 12.558C10.8637 10.1772 13.5418 9.07771 15.8281 10.1544C16.6292 10.5317 16.6379 10.4988 15.413 11.7277C14.4087 12.7353 14.2984 12.8203 14.0456 12.7827C13.8805 12.7581 13.6492 12.8056 13.4666 12.9013C12.3182 13.504 12.6883 15.1805 13.9698 15.1799C14.6825 15.1797 15.1458 14.7361 15.1914 14.0103C15.2165 13.6113 15.2193 13.6082 18.9702 9.8533L22.7239 6.09559H23.5232H24.3224L25.872 4.54282L27.4216 2.99005H26.2034H24.9854V1.77126V0.552469L23.8071 1.72938L22.6288 2.9062L21.759 2.32422C20.2421 1.30916 18.6282 0.632237 16.7849 0.2381C15.616 -0.0118518 13.0727 -0.0805286 11.9229 0.10678Z" fill="#969CA4"/>
</svg>
