<svg width="30" height="30" viewBox="0 0 30 30" fill="none" xmlns="http://www.w3.org/2000/svg">
<path fill-rule="evenodd" clip-rule="evenodd" d="M18.7186 7.23706C17.3144 10.6673 16.2465 13.555 16.3456 13.6544C16.6996 14.0085 29 8.71803 29 8.21172C29 6.42086 23.5791 1 21.7883 1C21.5044 1 20.1229 3.80678 18.7186 7.23706ZM10.1031 2.60682C4.33523 4.59905 0.553797 10.3843 1.04236 16.4695C1.43066 21.3065 4.33317 25.5546 8.72202 27.7102C10.7114 28.6869 12.0026 29 15 29C17.9974 29 18.4038 28.6869 20.3931 27.7102C23.0947 26.3832 25.8408 23.5863 26.988 20.9933C28.4396 17.7119 28.4487 11.4761 27.0028 10.9942C26.624 10.8679 26.5745 11.1324 26.8155 11.9977C27.4542 14.2887 27.1456 18.4299 26.1759 20.5852C25.3684 22.3806 24.5426 23.7409 23.9016 23.9016C23.9016 23.9016 22.279 22.5363 19.43 19.6959L14.9702 15.2501V8.90454V2.55854L16.4438 2.83501C17.2542 2.98728 18.2078 3.22331 18.5631 3.35948C18.9939 3.52495 19.1457 3.41725 19.019 3.03721C18.5783 1.71428 13.4092 1.46505 10.1031 2.60682ZM26.9323 6.1514C28.0864 7.82879 28.1293 8.00952 27.4596 8.36233C26.7829 8.71885 20.4633 11.3721 18.391 12.1698C18.3213 12.1966 18.2558 12.2234 18.195 12.2482C17.9708 12.3399 17.8099 12.4057 17.7363 12.352C17.5493 12.2154 17.9256 11.3076 19.2574 8.0936C19.3996 7.75042 19.5527 7.38093 19.7172 6.98329C19.8939 6.55616 20.0554 6.16284 20.2039 5.80126C21.2723 3.19925 21.6656 2.24123 22.1932 2.1605C22.5007 2.11345 22.8537 2.36433 23.4125 2.7614C23.5455 2.85591 23.6901 2.95871 23.8486 3.06774C24.8534 3.75891 26.2411 5.14662 26.9323 6.1514ZM13.9386 8.84595V14.8235L7.85217 14.8738H1.6737C1.6737 14.8738 1.88484 10.1452 5.74537 6.36433C9.60589 2.5835 13.9386 2.55854 13.9386 2.55854V8.84595ZM23.2826 24.5205L18.8111 20.3149L14.3653 15.8551H8.0197H1.6737L1.95843 17.3715C2.44699 19.9753 3.50115 21.8887 4.0948 22.6636C4.68846 23.4386 7.52416 26.4684 10 27.5C18.4849 30.182 21.559 26.1205 22.9928 24.7855C23.1032 24.6827 23.1995 24.5931 23.2826 24.5205Z" fill="#969CA4" stroke="#969CA4"/>
</svg>
