<svg width="30" height="32" viewBox="0 0 30 32" fill="none" xmlns="http://www.w3.org/2000/svg">
<path fill-rule="evenodd" clip-rule="evenodd" d="M6.53488 4.07685V7.15371H3.76744H1V16.7169V26.2801H6.86047H12.7209V27.419V28.558L10.3198 28.6534C7.22951 28.7762 6.53488 29.0456 6.53488 30.1213C6.53488 30.9815 6.71249 31 15 31C23.2875 31 23.4651 30.9815 23.4651 30.1213C23.4651 29.0456 22.7705 28.7762 19.6802 28.6534L17.2791 28.558V27.419V26.2801H23.1395H29V16.7169V7.15371H26.2326H23.4651V4.07685V1H15H6.53488V4.07685ZM22.4884 9.5653V17.4653H23.3945C24.6245 17.4653 24.8873 17.2897 25.0212 16.3773C25.1539 15.4729 24.8602 15.0346 24.0126 14.8721L23.4651 14.7672V11.7921V8.81687H25.5016H27.5381L27.4958 16.3427L27.4535 23.8685H15H2.54651L2.50419 16.3427L2.46186 8.81687H4.49837H6.53488V11.7066V14.5964L6.05156 14.6952C5.78572 14.7494 5.41081 14.9548 5.21823 15.1515C4.92277 15.4534 4.88402 15.6299 4.96998 16.2795C5.09874 17.2526 5.38509 17.4653 6.56598 17.4653H7.51163V9.5653V1.66527H15H22.4884V9.5653ZM14.0744 5.98118C13.4309 6.382 13.2093 6.79031 13.2093 7.57516C13.2093 8.40857 14.0711 9.31616 14.8616 9.31516C16.2165 9.31366 17.1091 7.97265 16.5527 6.77467C16.2774 6.18226 15.4967 5.6562 14.894 5.65753C14.7285 5.65786 14.3596 5.80355 14.0744 5.98118ZM13.4742 11.7221C11.8645 12.3084 10.6851 14.1071 10.4992 16.2595L10.3951 17.4653H14.998H19.601L19.5236 16.2595C19.3092 12.9186 16.3284 10.6828 13.4742 11.7221Z" stroke="#4851FB"/>
</svg>
