<svg width="30" height="31" viewBox="0 0 30 31" fill="none" xmlns="http://www.w3.org/2000/svg">
<path fill-rule="evenodd" clip-rule="evenodd" d="M6.53488 3.97429V6.94859H3.76744H1V16.193V25.4374H6.86047H12.7209V26.5384V27.6394L10.3198 27.7317C7.22951 27.8503 6.53488 28.1108 6.53488 29.1506C6.53488 29.9822 6.71249 30 15 30C23.2875 30 23.4651 29.9822 23.4651 29.1506C23.4651 28.1108 22.7705 27.8503 19.6802 27.7317L17.2791 27.6394V26.5384V25.4374H23.1395H29V16.193V6.94859H26.2326H23.4651V3.97429V1H15H6.53488V3.97429ZM22.4884 9.27979V16.9165H23.3945C24.6245 16.9165 24.8873 16.7467 25.0212 15.8647C25.1539 14.9904 24.8602 14.5668 24.0126 14.4097L23.4651 14.3083V11.4324V8.55631H25.5016H27.5381L27.4958 15.8313L27.4535 23.1062H15H2.54651L2.50419 15.8313L2.46186 8.55631H4.49837H6.53488V11.3497V14.1432L6.05156 14.2387C5.78572 14.2911 5.41081 14.4896 5.21823 14.6798C4.92277 14.9716 4.88402 15.1422 4.96998 15.7702C5.09874 16.7109 5.38509 16.9165 6.56598 16.9165H7.51163V9.27979V1.64309H15H22.4884V9.27979ZM14.0744 5.81514C13.4309 6.2026 13.2093 6.5973 13.2093 7.35598C13.2093 8.16162 14.0711 9.03895 14.8616 9.03799C16.2165 9.03654 17.1091 7.74023 16.5527 6.58219C16.2774 6.00951 15.4967 5.50099 14.894 5.50228C14.7285 5.5026 14.3596 5.64343 14.0744 5.81514ZM13.4742 11.3647C11.8645 11.9314 10.6851 13.6702 10.4992 15.7509L10.3951 16.9165H14.998H19.601L19.5236 15.7509C19.3092 12.5213 16.3284 10.36 13.4742 11.3647Z" stroke="#969CA4"/>
</svg>
