<svg width="40" height="33" viewBox="0 0 40 33" fill="none" xmlns="http://www.w3.org/2000/svg">
<path d="M12.583 19.8979V20.5363H20.0004H27.4178V19.8979V19.2595H20.0004H12.583V19.8979Z" fill="#9B3DFD"/>
<path d="M13.7751 22.948V23.5154H20.0004H26.2257V22.948V22.3805H20.0004H13.7751V22.948Z" fill="#9B3DFD"/>
<path fill-rule="evenodd" clip-rule="evenodd" d="M31.7365 15.3477C31.4253 15.4359 30.9715 15.7532 30.5908 16.1488C29.4541 17.3298 29.3697 18.9142 30.3738 20.2189C31.4221 21.581 33.4393 21.6332 34.5959 20.328C36.0159 18.7255 35.3198 16.016 33.3252 15.3816C32.5833 15.1455 32.4592 15.143 31.7365 15.3477Z" fill="#9B3DFD"/>
<path fill-rule="evenodd" clip-rule="evenodd" d="M6.67788 15.3694C5.07957 15.9147 4.21902 17.8021 4.84116 19.3974C5.65495 21.4841 8.30268 21.9387 9.62615 20.2189C10.5562 19.0104 10.5419 17.4396 9.59052 16.3118C8.81422 15.3915 7.68439 15.026 6.67788 15.3694Z" fill="#9B3DFD"/>
<path fill-rule="evenodd" clip-rule="evenodd" d="M7.6926 1.79334C8.12639 1.09182 8.9321 0.459103 9.73476 0.189701C10.1382 0.0542198 12.5746 0.00953243 19.9428 0.00229731L20.3319 0.00191021C29.1629 -0.00691222 30.2907 -0.00803896 31.0838 0.543248C31.2 0.623962 31.3089 0.716518 31.4338 0.822624L31.4715 0.854623C32.2769 1.5377 32.6097 2.189 33.8411 5.49262L34.9901 8.57563H36.3363C37.5695 8.57563 37.7351 8.60868 38.308 8.96959C39.1462 9.49718 39.5347 10.2479 39.7926 11.8385C39.9064 12.5408 39.9997 13.1952 40 13.2926C40.0003 13.422 39.6634 13.47 38.7561 13.47H37.512L37.9639 14.4406C38.7671 16.1651 38.8034 16.5928 38.8061 24.3627V24.3776C38.8082 30.8402 38.8085 31.8789 38.3246 32.3679C38.232 32.4615 38.1216 32.535 37.99 32.6226L37.9884 32.6236C37.5876 32.8903 37.376 32.9119 35.5196 32.875L33.4891 32.8346L33.0362 32.3047C32.6173 31.8148 32.583 31.7049 32.583 30.8506V28.6567H20H7.41697V30.8506C7.41697 31.7049 7.38266 31.8148 6.96385 32.3047L6.51086 32.8346L4.48035 32.875C2.62403 32.9119 2.41237 32.8903 2.01156 32.6236L2.01001 32.6226C1.87844 32.535 1.76802 32.4615 1.67536 32.3679C1.19148 31.8789 1.19182 30.8402 1.19393 24.3776L1.19393 24.3627C1.19658 16.5928 1.23287 16.1651 2.03607 14.4406L2.488 13.47H1.24387C0.336563 13.47 -0.00026475 13.422 1.56119e-07 13.2926C0.000265062 13.1952 0.0936444 12.5408 0.207421 11.8385C0.465307 10.2479 0.853792 9.49718 1.69195 8.96959C2.26495 8.60868 2.43051 8.57563 3.66365 8.57563H5.0099L6.15641 5.49943C6.78702 3.80754 7.47829 2.13978 7.6926 1.79334ZM32.9852 6.51858C31.4511 2.45089 31.1845 1.95918 30.2572 1.48791C29.8826 1.29738 28.5701 1.26972 19.98 1.27043C19.3942 1.27048 18.842 1.27038 18.3214 1.27028H18.321H18.3205H18.3201H18.3197H18.3193H18.3189H18.3185C10.8177 1.26884 9.87188 1.26866 9.29353 1.76235C9.21008 1.83358 9.13428 1.9151 9.04755 2.00838C9.0058 2.05328 8.96152 2.1009 8.91263 2.15141C8.58004 2.49501 8.16679 3.44905 7.0114 6.54072C6.87386 6.90867 6.71878 7.36195 6.56956 7.79808C6.4175 8.24251 6.27153 8.66915 6.15641 8.96959H33.8411C33.7295 8.67726 33.591 8.26718 33.4456 7.83671C33.2919 7.38179 33.1306 6.90411 32.9852 6.51858ZM35.0041 10.1505C34.7557 10.3535 34.5305 10.4959 34.5036 10.4671L5.47375 10.4908C5.44011 10.4908 5.21719 10.3312 4.97838 10.1361C4.60354 9.83 4.40711 9.78148 3.54033 9.78148C2.65184 9.78148 2.48945 9.8239 2.126 10.1515C1.62242 10.6053 1.51328 10.8201 1.39407 11.5903L1.30082 12.1932H2.96814C3.88511 12.1932 4.63546 12.2228 4.63546 12.2592C4.63546 12.2955 4.2573 12.9499 3.79504 13.7133C3.6932 13.8815 3.59905 14.0339 3.512 14.1747L3.51185 14.1749C3.23357 14.6252 3.0279 14.9581 2.87543 15.3168C2.44356 16.3329 2.43848 17.5571 2.41901 22.2489L2.41901 22.249C2.41686 22.7669 2.41453 23.327 2.41144 23.9338L2.39386 27.38H6.35735H20H33.6427H37.6061L37.5886 23.9338L37.55 16.3782L37.1331 15.4358C36.9038 14.9174 36.4121 14.0106 36.0403 13.4206C35.6687 12.8306 35.3645 12.3131 35.3645 12.2705C35.3645 12.2279 36.1149 12.1932 37.0319 12.1932H38.6992L38.6059 11.5903C38.4867 10.8201 38.3776 10.6053 37.874 10.1515C37.5106 9.8239 37.3482 9.78148 36.4597 9.78148C35.5826 9.78148 35.3987 9.82801 35.0041 10.1505ZM6.67788 15.3694C5.07957 15.9147 4.21902 17.8021 4.84116 19.3974C5.65495 21.4841 8.30268 21.9387 9.62615 20.2189C10.5562 19.0104 10.5419 17.4396 9.59052 16.3118C8.81422 15.3915 7.68439 15.026 6.67788 15.3694ZM31.7365 15.3477C31.4253 15.4359 30.9715 15.7532 30.5908 16.1488C29.4541 17.3298 29.3697 18.9142 30.3738 20.2189C31.4221 21.581 33.4393 21.6332 34.5959 20.328C36.0159 18.7255 35.3198 16.016 33.3252 15.3816C32.5833 15.1455 32.4592 15.143 31.7365 15.3477ZM12.583 19.8979V20.5363H20.0004H27.4178V19.8979V19.2595H20.0004H12.583V19.8979ZM13.7751 22.948V23.5154H20.0004H26.2257V22.948V22.3805H20.0004H13.7751V22.948ZM6.35735 29.9799C6.35735 31.0431 6.3135 31.3494 6.1388 31.505C5.86051 31.7527 3.26894 31.8564 2.74257 31.6409L2.3729 31.4894L2.38735 28.6567L6.35735 28.68V29.9799ZM37.2574 31.6409L37.6271 31.4894L37.6127 28.6567L33.6427 28.68V29.9799C33.6427 31.0431 33.6865 31.3494 33.8612 31.505C34.1395 31.7527 36.7311 31.8564 37.2574 31.6409Z" fill="#9B3DFD"/>
</svg>
