<svg width="29" height="40" viewBox="0 0 29 40" fill="none" xmlns="http://www.w3.org/2000/svg">
<path fill-rule="evenodd" clip-rule="evenodd" d="M2.46362 0.210144C1.60002 0.44899 0.716152 1.16046 0.303396 1.94917C0.0130779 2.50382 0 3.28572 0 19.9931C0 36.5788 0.0150388 37.4864 0.297838 38.0369C0.743287 38.9041 1.75466 39.6416 2.7608 39.8329C3.93189 40.0557 24.1702 40.0557 25.3412 39.8329C26.3474 39.6416 27.3588 38.9041 27.8042 38.0369C28.087 37.4865 28.1022 36.576 28.1056 20.0247C28.1096 0.659864 28.1902 2.04874 27.0008 0.966538C25.9155 -0.0208759 26.0819 -0.00855675 13.9804 0.00231307C5.32855 0.0099944 3.03788 0.0514444 2.46362 0.210144ZM26.0785 1.91076C26.629 2.44353 26.638 2.47324 26.638 3.75863V5.06518H14.051H1.46402V3.79312C1.46402 2.38585 1.61915 2.05497 2.50481 1.57336C2.99881 1.30466 3.41565 1.29611 14.2679 1.33205L25.5189 1.36945L26.0785 1.91076ZM7.87195 2.77527C7.43222 3.16514 7.77452 3.7608 8.43836 3.7608C8.92272 3.7608 9.22121 3.28485 8.98353 2.89122C8.78949 2.56976 8.17583 2.50585 7.87195 2.77527ZM10.6432 2.85499C10.5579 2.99948 10.5531 3.24905 10.6323 3.43471C10.7699 3.75791 10.7998 3.7608 14.051 3.7608C17.3022 3.7608 17.3321 3.75791 17.4698 3.43471C17.5489 3.24905 17.5442 2.99948 17.4588 2.85499C17.3236 2.62643 16.9877 2.60136 14.051 2.60136C11.1143 2.60136 10.7784 2.62643 10.6432 2.85499ZM26.638 19.3409V32.4571H14.051H1.46402V19.3409V6.22463H14.051H26.638V19.3409ZM26.638 35.626C26.638 37.6788 26.5051 38.0081 25.4874 38.4746C24.7855 38.7965 3.3166 38.7965 2.61467 38.4746C1.59692 38.0081 1.46402 37.6788 1.46402 35.626V33.7615H14.051H26.638V35.626ZM13.4308 35.0728C12.9942 35.228 12.5357 36.0905 12.6875 36.4708C13.1701 37.6798 14.9303 37.6877 15.4093 36.483C15.5713 36.0756 15.1938 35.3625 14.6952 35.134C14.1695 34.8928 13.9642 34.883 13.4308 35.0728Z" fill="#EDE66A"/>
</svg>
