<svg width="48" height="50" viewBox="0 0 48 50" fill="none" xmlns="http://www.w3.org/2000/svg">
<g opacity="0.4" filter="url(#filter0_d_870_19)">
<path fill-rule="evenodd" clip-rule="evenodd" d="M12.1012 0.255198C6.86343 1.54269 3.39648 6.30357 4.08757 11.2594C4.79958 16.3638 9.259 20.0889 14.6838 20.1107C16.5905 20.1184 17.8087 19.8456 19.5604 19.019L20.8871 18.393L24.5001 22.5264L28.1131 26.66V31.374V36.0879L27.3706 36.2265C26.2158 36.4419 23.3804 37.1509 22.2378 37.5101C19.7606 38.2886 18.1453 39.2212 17.6687 40.1482C17.3263 40.814 17.3251 41.0934 17.6631 41.4979L17.9307 41.8182H28.9524H39.9741L40.2534 41.4839C40.4626 41.2336 40.5149 41.0463 40.4615 40.7376C40.1789 39.0973 37.6454 37.8411 32.029 36.5561L29.7921 36.0444L29.7924 31.3646L29.7925 26.6848L36.8941 18.5473C42.9431 11.6159 43.9958 10.353 43.9958 10.027C43.9958 9.20371 44.5 9.24687 34.4957 9.21235L25.4659 9.18111L25.4299 8.87722C25.2559 7.41153 24.4103 5.40152 23.4182 4.09483C22.0042 2.23239 19.8032 0.839141 17.3425 0.248878C15.9488 -0.0855158 13.4753 -0.0824769 12.1012 0.255198ZM16.927 2.02672C19.9825 2.74959 22.4559 5.11223 23.2666 8.08226C23.6065 9.32721 23.7298 9.24188 21.5921 9.24188C19.885 9.24188 19.4553 9.16701 19.8489 8.938C19.9199 8.89667 19.978 8.71045 19.978 8.52423C19.978 8.17793 19.718 7.88462 19.2805 7.73766C18.836 7.58827 17.7249 8.00678 16.5771 8.75579C15.9557 9.16117 15.3905 9.45971 15.3208 9.41923C15.2419 9.37328 15.2255 8.81061 15.2774 7.92619C15.3738 6.28485 15.2359 5.61339 14.725 5.235C14.3451 4.95372 13.9993 4.99432 13.5862 5.36834C13.2002 5.71793 13.268 6.93529 13.7525 8.35199C14.2109 9.69248 14.1425 9.84357 13.2657 9.42531C11.6792 8.66852 9.90877 8.39733 9.48937 8.84683C9.13762 9.22401 9.10818 9.54613 9.39433 9.88855C9.79902 10.3729 10.7298 10.579 12.5121 10.579C13.3514 10.579 14.0381 10.6242 14.0381 10.6794C14.0381 10.7346 13.8872 10.9123 13.7025 11.0744C13.1135 11.5916 12.1095 12.8448 11.8457 13.3921C11.5189 14.0701 11.518 14.5274 11.843 14.8333C12.5997 15.5456 13.5852 14.5115 14.4169 12.1319L14.7026 11.3146L17.1612 14.1219C19.0604 16.2905 19.5798 16.9555 19.4438 17.0449C18.995 17.34 17.6384 17.884 16.879 18.0732C15.775 18.3485 13.7361 18.3506 12.6177 18.0777C10.1963 17.4867 7.99045 15.8424 6.95885 13.8595C5.44948 10.9579 5.62845 8.00374 7.47059 5.41113C9.52746 2.51609 13.2954 1.16758 16.927 2.02672ZM41.155 10.9227C41.155 10.9782 40.6895 11.5525 40.1206 12.199L39.0863 13.3747H28.9538H18.8213L17.7856 12.1932C17.2159 11.5434 16.7498 10.969 16.7498 10.9169C16.7498 10.8647 22.241 10.8221 28.9524 10.8221C35.6638 10.8221 41.155 10.8674 41.155 10.9227ZM37.4453 15.2284C36.8395 15.96 29.437 24.4416 29.213 24.6608L28.9209 24.9463L24.7538 20.1633C22.4619 17.5327 20.5298 15.312 20.4602 15.2284C20.3593 15.1072 22.0762 15.0764 28.9524 15.0764C35.8283 15.0764 37.5456 15.1072 37.4453 15.2284ZM30.8893 38.0393C33.1644 38.5136 35.0902 39.053 36.4614 39.6L37.604 40.0557L33.3199 40.0876C30.9636 40.1053 27.0704 40.1053 24.6683 40.0876L20.3008 40.0557L21.4283 39.6059C23.0758 38.9487 27.8857 37.7172 28.8878 37.6962C29.0654 37.6924 29.966 37.8468 30.8893 38.0393Z" fill="#FF8B4F"/>
</g>
<defs>
<filter id="filter0_d_870_19" x="0" y="0" width="48" height="49.8181" filterUnits="userSpaceOnUse" color-interpolation-filters="sRGB">
<feFlood flood-opacity="0" result="BackgroundImageFix"/>
<feColorMatrix in="SourceAlpha" type="matrix" values="0 0 0 0 0 0 0 0 0 0 0 0 0 0 0 0 0 0 127 0" result="hardAlpha"/>
<feOffset dy="4"/>
<feGaussianBlur stdDeviation="2"/>
<feComposite in2="hardAlpha" operator="out"/>
<feColorMatrix type="matrix" values="0 0 0 0 0 0 0 0 0 0 0 0 0 0 0 0 0 0 0.15 0"/>
<feBlend mode="normal" in2="BackgroundImageFix" result="effect1_dropShadow_870_19"/>
<feBlend mode="normal" in="SourceGraphic" in2="effect1_dropShadow_870_19" result="shape"/>
</filter>
</defs>
</svg>
