<svg width="31" height="30" viewBox="0 0 31 30" fill="none" xmlns="http://www.w3.org/2000/svg">
<path fill-rule="evenodd" clip-rule="evenodd" d="M17.5707 0.0662202C16.881 0.362086 16.7638 0.662052 16.7635 2.1317C16.7633 3.52416 16.8508 3.77484 17.4295 4.04061L17.7572 4.19116L17.4464 4.73143C17.0398 5.43839 16.4189 6.92967 15.9869 8.23743C15.7967 8.81312 15.6322 9.29817 15.6214 9.31527C15.6106 9.33245 15.3815 9.22447 15.1123 9.0754C14.8431 8.92633 14.5335 8.80439 14.4243 8.80439C14.3072 8.80439 14.016 8.99812 13.7135 9.27733L13.2012 9.75035L12.8415 9.48527C12.2855 9.07549 11.1068 8.55606 10.4091 8.41319C7.03282 7.72211 3.77538 9.73517 2.97014 13.0103C2.87245 13.4076 2.7716 13.8749 2.7461 14.0489L2.69968 14.3651L1.93419 14.404C1.26882 14.4378 1.11976 14.4763 0.794062 14.6983C0.587954 14.8388 0.324979 15.1267 0.209713 15.3381C0.0164923 15.6924 0 15.8281 0 17.0636C0 18.4916 0.0748911 18.836 0.477465 19.2598C0.724668 19.5201 1.31632 19.7903 1.64472 19.7928L1.89256 19.7947V20.8186V21.8426L2.94067 25.1581C3.51718 26.9816 4.06485 28.6197 4.15785 28.7982C4.40127 29.2656 4.86306 29.7458 5.2002 29.8822C5.43902 29.9787 7.30544 30 15.5467 30C25.4084 30 25.6085 29.9967 25.9534 29.8263C26.3541 29.6285 26.6865 29.2427 26.8933 28.7352C26.9715 28.5433 27.5022 26.915 28.0724 25.1168L29.1093 21.8473V20.821V19.7947H29.3375C29.6418 19.7947 30.1825 19.57 30.4492 19.3326C30.9077 18.9247 30.9977 18.5566 30.9999 17.0826C31.0017 15.8252 30.986 15.6936 30.7921 15.3381C30.6769 15.1267 30.4098 14.836 30.1988 14.6921C29.8244 14.4367 29.7852 14.4297 28.5736 14.4005L27.3321 14.3706L27.2815 13.2665C27.2537 12.6594 27.1459 11.77 27.0419 11.2903C26.6414 9.44209 25.5835 6.42351 24.8206 4.95185L24.4286 4.19579L24.7554 4.03154C25.31 3.75303 25.4144 3.44522 25.414 2.08948C25.4136 0.767071 25.3228 0.499727 24.7617 0.168709C24.4819 0.00359285 24.3079 -0.0043446 21.0885 0.00115056C19.2297 0.00437788 17.6467 0.0335981 17.5707 0.0662202ZM24.1526 2.08809V2.96034H21.0885H18.0243V2.08809V1.21584H21.0885H24.1526V2.08809ZM23.0563 4.40111C23.1545 4.52192 23.4215 4.9706 23.6497 5.39818C24.8835 7.71033 26.0452 11.6696 26.0452 13.5626V14.3868H25.4266H24.8081L22.9257 13.3597C21.8905 12.7948 20.0803 11.8068 18.903 11.1639C17.6982 10.5059 16.7626 9.94146 16.7626 9.87255C16.7626 9.80512 16.9878 9.09729 17.263 8.29954C17.7991 6.74519 18.6481 4.92699 19.0533 4.46496L19.3021 4.18148H21.0899H22.8778L23.0563 4.40111ZM10.3633 9.63172C10.9307 9.77791 11.9146 10.2406 12.116 10.456C12.2407 10.5893 12.0745 10.7648 10.186 12.4943L8.11951 14.3868H6.03689H3.95427L4.01195 13.9725C4.29925 11.9081 5.54888 10.3632 7.43215 9.74389C8.01885 9.55104 8.31823 9.50577 9.01217 9.50507C9.48305 9.50463 10.0911 9.56159 10.3633 9.63172ZM18.3983 12.2716L22.1844 14.3432L19.1647 14.3661C17.5038 14.3787 14.755 14.3787 13.0561 14.3661L9.96728 14.3432L12.2159 12.2745C13.4526 11.1366 14.4978 10.2044 14.5383 10.2029C14.579 10.2013 16.3159 11.1322 18.3983 12.2716ZM29.5753 15.7523C29.7198 15.8788 29.7402 16.0449 29.7402 17.0981C29.7402 18.0739 29.7136 18.3251 29.5986 18.4365C29.4711 18.56 28.068 18.5736 15.5009 18.5736C2.93382 18.5736 1.53081 18.56 1.40328 18.4365C1.18988 18.2299 1.19609 15.997 1.41085 15.7675C1.55415 15.6142 2.10912 15.6079 15.4852 15.6079C28.3164 15.6079 29.4235 15.6193 29.5753 15.7523ZM7.4801 23.5167C7.4801 26.8576 7.49533 27.255 7.62925 27.3982C7.76002 27.538 7.93161 27.5577 9.021 27.5577C10.2029 27.5577 10.2705 27.5482 10.4039 27.3638C10.5256 27.1958 10.5442 26.6787 10.5442 23.4823V19.7947H11.1751H11.8059V23.5167C11.8059 26.8576 11.8212 27.255 11.9551 27.3982C12.0859 27.538 12.2575 27.5577 13.3468 27.5577C14.5288 27.5577 14.5964 27.5482 14.7298 27.3638C14.8514 27.1958 14.8701 26.6787 14.8701 23.4823V19.7947H15.5009H16.1318V23.4823C16.1318 26.6787 16.1504 27.1958 16.2721 27.3638C16.4054 27.548 16.4736 27.5577 17.6393 27.5577C18.6546 27.5577 18.8947 27.5328 19.0311 27.4134C19.1859 27.2778 19.1959 27.0416 19.1959 23.5318V19.7947H19.8268H20.4576V23.4823C20.4576 26.6787 20.4763 27.1958 20.5979 27.3638C20.7312 27.548 20.7995 27.5577 21.9652 27.5577C22.9804 27.5577 23.2206 27.5328 23.3569 27.4134C23.5118 27.2778 23.5218 27.0416 23.5218 23.5318V19.7947H25.7297H27.9377V20.608C27.9377 21.3976 27.9064 21.5208 26.8654 24.8316C26.2758 26.7073 25.7196 28.3627 25.6294 28.5104L25.4656 28.7789H15.5591C6.23173 28.7789 5.64522 28.77 5.52806 28.6262C5.2467 28.281 5.09566 27.867 4.10234 24.7191C3.09397 21.5235 3.06414 21.4056 3.06414 20.6119V19.7947H5.27212H7.4801V23.5167ZM9.28253 23.1147V26.4349L8.98964 26.4075L8.69674 26.3802L8.67313 23.0874L8.64952 19.7947H8.96603H9.28253V23.1147ZM13.6084 23.1147V26.4349L13.3155 26.4075L13.0226 26.3802L12.9989 23.1968C12.9859 21.446 12.9947 19.9643 13.0186 19.9041C13.0425 19.8439 13.1849 19.7947 13.3352 19.7947H13.6084V23.1147ZM17.9793 23.1092V26.3802L17.6864 26.4075L17.3935 26.4349V23.1092V19.7836L17.6864 19.811L17.9793 19.8383V23.1092ZM22.3287 23.0874L22.3051 26.3802L22.0122 26.4075L21.7193 26.4349V23.1147V19.7947H22.0358H22.3523L22.3287 23.0874Z" fill="#01D9A0"/>
</svg>
