<svg width="40" height="38" viewBox="0 0 40 38" fill="none" xmlns="http://www.w3.org/2000/svg">
<path d="M1.49512 2.8645H38.3779V36.8H1.49512V2.8645Z" stroke="#3DABFD" stroke-width="2"/>
<mask id="path-2-inside-1_870_22" fill="white">
<path fill-rule="evenodd" clip-rule="evenodd" d="M5.06235 23.5854V27.7726H7.86937H10.9179V23.5854V19.3983H7.86937H5.06235V23.5854ZM6.50874 26.3262H9.40151V20.7839H6.50874V26.3262Z"/>
<path fill-rule="evenodd" clip-rule="evenodd" d="M14.4639 28.0217V36.7181H20H25.2632V28.0217V19.3983H19.8878H14.4639V28.0217ZM23.8654 36.074V28.0217V20.7839H20H15.9102V28.0217V36.074H20H23.8654Z"/>
<path fill-rule="evenodd" clip-rule="evenodd" d="M28.9277 23.5854V27.7726H31.9062H34.7133V23.5854V19.3983H31.9062H28.9277V23.5854ZM30.3398 26.3262H33.2669V20.7839H30.3741L30.3398 26.3262Z"/>
<path d="M0 7.73013V15.4603H5.45895H10.9179L15.44 11.2718L19.9621 7.08338L24.56 11.2718L29.1579 15.4603H34.5789H40V7.73013V0H20H0V7.73013Z"/>
</mask>
<path fill-rule="evenodd" clip-rule="evenodd" d="M5.06235 23.5854V27.7726H7.86937H10.9179V23.5854V19.3983H7.86937H5.06235V23.5854ZM6.50874 26.3262H9.40151V20.7839H6.50874V26.3262Z" fill="#C4C4C4"/>
<path fill-rule="evenodd" clip-rule="evenodd" d="M14.4639 28.0217V36.7181H20H25.2632V28.0217V19.3983H19.8878H14.4639V28.0217ZM23.8654 36.074V28.0217V20.7839H20H15.9102V28.0217V36.074H20H23.8654Z" fill="#C4C4C4"/>
<path fill-rule="evenodd" clip-rule="evenodd" d="M28.9277 23.5854V27.7726H31.9062H34.7133V23.5854V19.3983H31.9062H28.9277V23.5854ZM30.3398 26.3262H33.2669V20.7839H30.3741L30.3398 26.3262Z" fill="#C4C4C4"/>
<path d="M0 7.73013V15.4603H5.45895H10.9179L15.44 11.2718L19.9621 7.08338L24.56 11.2718L29.1579 15.4603H34.5789H40V7.73013V0H20H0V7.73013Z" fill="#3DABFD"/>
<path d="M0 15.4603H-2V17.4603H0V15.4603ZM10.9179 15.4603V17.4603H11.7018L12.2769 16.9276L10.9179 15.4603ZM15.44 11.2718L16.799 12.7391V12.7391L15.44 11.2718ZM19.9621 7.08338L21.309 5.60487L19.9509 4.36772L18.6031 5.61607L19.9621 7.08338ZM24.56 11.2718L25.9068 9.79331L25.9068 9.79331L24.56 11.2718ZM29.1579 15.4603L27.811 16.9388L28.3835 17.4603H29.1579V15.4603ZM40 15.4603V17.4603H42V15.4603H40ZM40 0H42V-2H40V0ZM0 0V-2H-2V0H0ZM5.06235 27.7726H3.06235V29.7726H5.06235V27.7726ZM10.9179 27.7726V29.7726H12.9179V27.7726H10.9179ZM10.9179 19.3983H12.9179V17.3983H10.9179V19.3983ZM5.06235 19.3983V17.3983H3.06235V19.3983H5.06235ZM14.4639 36.7181H12.4639V38.7181H14.4639V36.7181ZM25.2632 36.7181V38.7181H27.2632V36.7181H25.2632ZM25.2632 19.3983H27.2632V17.3983H25.2632V19.3983ZM14.4639 19.3983V17.3983H12.4639V19.3983H14.4639ZM28.9277 27.7726H26.9277V29.7726H28.9277V27.7726ZM34.7133 27.7726V29.7726H36.7133V27.7726H34.7133ZM34.7133 19.3983H36.7133V17.3983H34.7133V19.3983ZM28.9277 19.3983V17.3983H26.9277V19.3983H28.9277ZM9.40151 26.3262V28.3262H11.4015V26.3262H9.40151ZM6.50874 26.3262H4.50874V28.3262H6.50874V26.3262ZM6.50874 20.7839V18.7839H4.50874V20.7839H6.50874ZM9.40151 20.7839H11.4015V18.7839H9.40151V20.7839ZM23.8654 36.074V38.074H25.8654V36.074H23.8654ZM15.9102 36.074H13.9102V38.074H15.9102V36.074ZM15.9102 20.7839V18.7839H13.9102V20.7839H15.9102ZM23.8654 20.7839H25.8654V18.7839H23.8654V20.7839ZM33.2669 26.3262V28.3262H35.2669V26.3262H33.2669ZM30.3398 26.3262L28.3398 26.3138L28.3274 28.3262H30.3398V26.3262ZM30.3741 20.7839V18.7839H28.3864L28.3741 20.7715L30.3741 20.7839ZM33.2669 20.7839H35.2669V18.7839H33.2669V20.7839ZM-2 7.73013V15.4603H2V7.73013H-2ZM0 17.4603H5.45895V13.4603H0V17.4603ZM5.45895 17.4603H10.9179V13.4603H5.45895V17.4603ZM12.2769 16.9276L16.799 12.7391L14.081 9.80451L9.55885 13.993L12.2769 16.9276ZM16.799 12.7391L21.3211 8.55069L18.6031 5.61607L14.081 9.80451L16.799 12.7391ZM18.6153 8.56189L23.2132 12.7503L25.9068 9.79331L21.309 5.60487L18.6153 8.56189ZM23.2132 12.7503L27.811 16.9388L30.5047 13.9818L25.9068 9.79331L23.2132 12.7503ZM29.1579 17.4603H34.5789V13.4603H29.1579V17.4603ZM34.5789 17.4603H40V13.4603H34.5789V17.4603ZM42 15.4603V7.73013H38V15.4603H42ZM42 7.73013V0H38V7.73013H42ZM40 -2H20V2H40V-2ZM20 -2H0V2H20V-2ZM-2 0V7.73013H2V0H-2ZM3.06235 23.5854V27.7726H7.06235V23.5854H3.06235ZM5.06235 29.7726H7.86937V25.7726H5.06235V29.7726ZM7.86937 29.7726H10.9179V25.7726H7.86937V29.7726ZM12.9179 27.7726V23.5854H8.91789V27.7726H12.9179ZM12.9179 23.5854V19.3983H8.91789V23.5854H12.9179ZM10.9179 17.3983H7.86937V21.3983H10.9179V17.3983ZM7.86937 17.3983H5.06235V21.3983H7.86937V17.3983ZM3.06235 19.3983V23.5854H7.06235V19.3983H3.06235ZM12.4639 28.0217V36.7181H16.4639V28.0217H12.4639ZM14.4639 38.7181H20V34.7181H14.4639V38.7181ZM20 38.7181H25.2632V34.7181H20V38.7181ZM27.2632 36.7181V28.0217H23.2632V36.7181H27.2632ZM27.2632 28.0217V19.3983H23.2632V28.0217H27.2632ZM25.2632 17.3983H19.8878V21.3983H25.2632V17.3983ZM19.8878 17.3983H14.4639V21.3983H19.8878V17.3983ZM12.4639 19.3983V28.0217H16.4639V19.3983H12.4639ZM26.9277 23.5854V27.7726H30.9277V23.5854H26.9277ZM28.9277 29.7726H31.9062V25.7726H28.9277V29.7726ZM31.9062 29.7726H34.7133V25.7726H31.9062V29.7726ZM36.7133 27.7726V23.5854H32.7133V27.7726H36.7133ZM36.7133 23.5854V19.3983H32.7133V23.5854H36.7133ZM34.7133 17.3983H31.9062V21.3983H34.7133V17.3983ZM31.9062 17.3983H28.9277V21.3983H31.9062V17.3983ZM26.9277 19.3983V23.5854H30.9277V19.3983H26.9277ZM9.40151 24.3262H6.50874V28.3262H9.40151V24.3262ZM8.50874 26.3262V20.7839H4.50874V26.3262H8.50874ZM6.50874 22.7839H9.40151V18.7839H6.50874V22.7839ZM7.40151 20.7839V26.3262H11.4015V20.7839H7.40151ZM21.8654 28.0217V36.074H25.8654V28.0217H21.8654ZM23.8654 34.074H20V38.074H23.8654V34.074ZM20 34.074H15.9102V38.074H20V34.074ZM17.9102 36.074V28.0217H13.9102V36.074H17.9102ZM17.9102 28.0217V20.7839H13.9102V28.0217H17.9102ZM15.9102 22.7839H20V18.7839H15.9102V22.7839ZM20 22.7839H23.8654V18.7839H20V22.7839ZM21.8654 20.7839V28.0217H25.8654V20.7839H21.8654ZM33.2669 24.3262H30.3398V28.3262H33.2669V24.3262ZM32.3398 26.3386L32.3741 20.7962L28.3741 20.7715L28.3398 26.3138L32.3398 26.3386ZM30.3741 22.7839H33.2669V18.7839H30.3741V22.7839ZM31.2669 20.7839V26.3262H35.2669V20.7839H31.2669Z" fill="#44B3FB" mask="url(#path-2-inside-1_870_22)"/>
</svg>
