<svg width="40" height="45" viewBox="0 0 40 45" fill="none" xmlns="http://www.w3.org/2000/svg">
<path fill-rule="evenodd" clip-rule="evenodd" d="M0 20.9539V41.9079H7.52704H15.0542L14.994 41.2777L14.934 40.6475H8.17598H1.41794V20.9528V1.25818L12.2494 1.29867L23.0809 1.33916L23.1226 6.105L23.1642 10.8708H27.8884H32.6125V14.5822V18.2937L33.2821 18.2452L33.9517 18.1968L33.9938 14.0303L34.0358 9.86364L29.1131 4.9319L24.1903 0H12.0952H0V20.9539ZM28.0436 5.90807L31.5858 9.45291H28.003H24.42V5.90807C24.42 3.9584 24.4383 2.36323 24.4607 2.36323C24.483 2.36323 26.0954 3.9584 28.0436 5.90807ZM17.0152 14.7308C17.0152 14.7308 17.0137 14.7598 16.1591 14.951C13.5399 15.5371 12.2577 18.0584 13.4115 20.354C13.8033 21.1335 14.6315 21.7366 15.8933 22.1609L17.0244 22.5294L18.4332 22.8445C18.4332 22.8445 19.0086 22.8906 19.5319 23.1576C20.3019 23.5503 20.6389 24.0238 20.6389 24.7127V25.2506L21.3699 25.1504C21.7718 25.0953 22.2326 25.0502 22.3939 25.0502C23.0566 25.0502 22.6293 23.0626 21.7727 22.1609C21.2267 21.586 20.6319 21.2746 19.4572 20.9484L18.4678 20.6388L16.981 20.3237C16.981 20.3237 16.5984 20.2678 16.2729 20.144C15.4727 19.8394 14.9128 19.0063 15.0271 18.2904C15.1316 17.6361 15.8108 16.8931 16.4578 16.725L16.981 16.6007H18.4678C19.0003 16.6018 20.0336 17.3338 20.2989 17.9654L20.5601 18.5876L21.5281 18.5891L22.4959 18.5907L22.3506 17.944C21.9927 16.3507 20.9984 15.4182 19.1659 14.9567C18.4514 14.7768 18.4332 14.7308 18.4332 14.7308V13.5492H17.7242H17.0152V14.7308ZM17.0244 26.9319L16.5865 26.7117C15.7692 26.5102 15.2055 26.0746 14.8924 25.4026L14.5814 24.7351H13.5897H12.5979L12.6938 25.1684C13.0217 26.6496 13.701 27.5347 14.9261 28.0766L15.616 28.3817L16.2344 27.6792C16.4313 27.4557 16.7264 27.1792 17.0244 26.9319ZM31.5492 20.558C29.9126 21.0168 28.6122 21.9134 28.1399 22.9086C27.9401 23.3296 27.8861 23.9678 27.8861 25.9038V28.3641L27.101 27.9663C25.9355 27.3756 24.6738 27.098 23.1659 27.1007C20.2776 27.1057 18.0352 28.098 17.3114 29.6914C17.048 30.2712 17.022 30.8346 17.0212 35.9998C17.0204 41.581 17.0261 41.6813 17.3722 42.2879C17.7957 43.0295 18.9526 43.8572 20.0627 44.2127C21.0961 44.5437 24.0925 44.6766 25.2227 44.4417C26.2189 44.2347 27.6661 43.5948 28.1382 43.1525C28.4684 42.8433 28.4704 42.8436 29.2746 43.3847C30.6726 44.3256 31.4498 44.5082 34.0305 44.5019C36.5853 44.4958 37.505 44.258 38.7853 43.2732C38.8506 43.2229 38.9126 43.1767 38.9712 43.1329C39.1533 42.9968 39.3041 42.8842 39.4287 42.7477C40.0275 42.0915 40.0217 40.8834 39.9875 33.8678C39.9852 33.3973 39.9828 32.9006 39.9804 32.3762L39.9385 23.0808L39.5634 22.5548C39.0643 21.8551 38.1343 21.1985 37.0467 20.7778C35.885 20.3285 32.807 20.2054 31.5492 20.558ZM36.3256 21.9733C37.3072 22.2687 38.2216 22.8965 38.5249 23.4831C38.7555 23.9288 38.7528 24.0093 38.4899 24.5472C38.2681 25.001 37.9667 25.2501 37.1186 25.6804C36.0405 26.2274 36.0148 26.2318 33.9643 26.2318C31.9406 26.2318 31.8744 26.2208 30.8326 25.7078C29.8008 25.1999 29.4423 24.8541 29.2394 24.1709C28.9869 23.32 30.6637 22.0582 32.455 21.7513C33.5082 21.5709 35.3367 21.6757 36.3256 21.9733ZM37.8249 26.8702C38.2651 26.649 38.6548 26.4681 38.6911 26.4681C38.7273 26.4681 38.7566 26.7341 38.7563 27.0589C38.755 28.3894 37.5254 29.2939 35.2387 29.6468C32.922 30.0042 30.1434 29.2829 29.4488 28.1437C29.1917 27.7219 29.0148 26.4681 29.2123 26.4681C29.2486 26.4681 29.6383 26.649 30.0785 26.8702C32.2781 27.9749 35.6253 27.9749 37.8249 26.8702ZM24.4096 28.5256C25.7705 28.7464 26.8434 29.2303 27.4145 29.8808C27.9697 30.513 27.9949 30.7779 27.5666 31.4804C27.3449 31.844 26.9268 32.153 26.1887 32.4986C25.2943 32.9174 24.898 33.005 23.6482 33.0598C22.071 33.129 20.7754 32.9218 19.8491 32.4521C17.926 31.4772 17.9585 30.0072 19.9237 29.0775C21.2876 28.4321 22.736 28.254 24.4096 28.5256ZM30.5644 30.516C31.5357 30.9354 31.7104 30.9583 33.9517 30.9583C34.0914 30.9583 34.2225 30.9585 34.3459 30.9586C35.3201 30.96 35.8153 30.9607 36.2905 30.8637C36.782 30.7633 37.2522 30.5583 38.2085 30.1414C38.3258 30.0903 38.4505 30.0359 38.5835 29.9782C38.7613 29.901 38.787 30.0306 38.7171 30.6514C38.6473 31.2707 38.523 31.5185 38.0774 31.9269C36.3814 33.4813 31.522 33.4813 29.826 31.9269C29.3804 31.5185 29.2561 31.2707 29.1863 30.6514C29.1164 30.0306 29.1421 29.901 29.3199 29.9782C29.4412 30.0309 30.0012 30.2729 30.5644 30.516ZM21.0909 34.2762C21.6654 34.398 22.6028 34.4989 23.1738 34.5004C24.3609 34.5034 26.4273 34.021 27.2134 33.5573C27.5065 33.3842 27.778 33.2427 27.8163 33.2427C27.8547 33.2427 27.8861 33.5562 27.8861 33.9396C27.8861 35.2373 26.7193 36.0543 24.3368 36.4247C22.2961 36.742 19.9207 36.2273 18.8664 35.2392C18.5042 34.8998 18.4332 34.7024 18.4332 34.0354V33.2374L19.2397 33.646C19.6832 33.8709 20.5163 34.1545 21.0909 34.2762ZM32.1941 34.3547C34.1887 34.6911 36.5106 34.3823 38.1061 33.5684L38.7569 33.2363L38.7563 33.8304C38.755 35.164 37.5274 36.0682 35.2387 36.4214C32.922 36.7787 30.1434 36.0575 29.4488 34.9183C29.2832 34.6466 29.1474 34.1615 29.1471 33.8401L29.1465 33.2561L30.107 33.7105C30.6355 33.9604 31.5746 34.2502 32.1941 34.3547ZM20.6483 37.5794C21.4187 37.7803 22.1179 37.8279 23.5535 37.7773C25.446 37.7106 25.6465 37.6613 27.6891 36.7617C27.8284 36.7004 27.8861 36.8608 27.8861 37.31C27.8861 38.9764 25.7401 39.9915 22.5836 39.8182C20.8161 39.7213 19.8508 39.4298 19.0152 38.741C18.4872 38.3059 18.4332 38.1888 18.4332 37.4819V36.7023L19.0334 37.0086C19.3635 37.177 20.0903 37.4338 20.6483 37.5794ZM30.5644 37.2906C31.5357 37.71 31.7104 37.7329 33.9517 37.7329C34.0914 37.7329 34.2225 37.733 34.3459 37.7332C35.32 37.7346 35.8153 37.7353 36.2905 37.6382C36.782 37.5378 37.2522 37.3329 38.2085 36.916C38.3258 36.8648 38.4505 36.8105 38.5835 36.7527C38.7613 36.6755 38.787 36.8052 38.7171 37.4259C38.6473 38.0453 38.523 38.2931 38.0774 38.7015C36.3814 40.2558 31.522 40.2558 29.826 38.7015C29.3804 38.2931 29.2561 38.0453 29.1863 37.4259C29.1164 36.8052 29.1421 36.6755 29.3199 36.7527C29.4412 36.8055 30.0012 37.0475 30.5644 37.2906ZM20.7156 40.9621C22.8396 41.5054 25.3628 41.2906 27.0796 40.4206L27.8861 40.012V40.7115C27.8861 42.0122 26.7213 42.8286 24.3368 43.1993C22.2829 43.5187 19.9335 42.9983 18.8357 41.981C18.5072 41.6764 18.4332 41.4627 18.4332 40.8178V40.0279L18.9573 40.3371C19.2456 40.5073 20.0369 40.7885 20.7156 40.9621ZM32.1941 41.1293C34.1887 41.4657 36.5106 41.1568 38.1061 40.343L38.7569 40.0108L38.7563 40.605C38.755 41.9386 37.5274 42.8428 35.2387 43.196C32.922 43.5533 30.1434 42.8321 29.4488 41.6928C29.2832 41.4212 29.1474 40.9361 29.1471 40.6147L29.1465 40.0307L30.107 40.4851C30.6355 40.7349 31.5746 41.0248 32.1941 41.1293Z" fill="#01D9A0"/>
</svg>
