<svg width="40" height="42" viewBox="0 0 40 42" fill="none" xmlns="http://www.w3.org/2000/svg">
<path fill-rule="evenodd" clip-rule="evenodd" d="M16.6895 0C8.69655 0.492938 7.60533 2.04218 6.83071 3.84006C6.20305 5.81503 6.05609 7.95744 6.40819 9.99961C6.76029 12.0418 8.13319 17.5451 8.13319 17.5451C8.80246 19.0837 9.03611 20.2535 10.1068 21.3884L11.0103 22.3461V23.4567V24.5675L9.5813 25.0512C7.62152 25.7147 5.35514 26.7169 3.95491 27.5394C2.52286 28.3808 0.909681 29.872 0.442517 30.7864C0.124924 31.4082 0.0911227 31.6561 0.0476034 33.6846L0 35.9029H10.7798H21.5596L22.216 36.9175C23.9079 39.5329 26.6574 41.1532 29.7419 41.3525C35.4858 41.7236 40.3512 36.8582 39.9801 31.1143C39.7053 26.8624 36.7036 23.28 32.5847 22.288C31.3466 21.9899 29.2198 21.9909 28.0518 22.29C26.6133 22.6586 24.9822 23.5317 23.9282 24.4974L22.9877 25.3593L21.7874 24.9685L20.5873 24.5777V23.4657V22.3538L21.4796 21.3902C22.5501 20.2339 23.0272 19.0133 23.4634 17.5511C23.6928 16.7822 24.9497 12.0482 25.1541 10.5753C25.6595 6.93304 25.9371 5.48732 25.1541 3.84006C24.371 2.19281 24.8005 0.774617 16.6895 0ZM23.8723 4.46553C22.944 2.3116 21.7874 2.19916 20.633 1.7605C18.9997 1.1399 13.2389 1.17412 11.5488 1.7605C9.57708 2.44462 9.22498 2.39428 8.13319 4.46553C6.51312 8.30953 8.80246 16.267 8.80246 16.267C9.62271 19.1609 11.4119 22.0107 14.2155 22.6406C14.5279 22.7108 14.9311 22.8715 15.1112 22.9977C15.5292 23.2905 16.0684 23.2905 16.4864 22.9977C16.6665 22.8715 17.0697 22.7108 17.3821 22.6406C20.1857 22.0107 21.9709 19.1992 22.816 16.267C22.816 16.267 24.8005 6.61946 23.8723 4.46553ZM14.6159 24.0994C14.3282 23.9297 14.017 23.7891 13.9246 23.7873C13.8323 23.7855 13.3921 23.6341 12.9468 23.451L12.137 23.1179V24.9363V26.7546L12.7036 27.3693C13.5034 28.237 14.4731 28.6329 15.7988 28.6329C17.1245 28.6329 18.0942 28.237 18.894 27.3693L19.4606 26.7546V24.9363V23.1179L18.6508 23.451C18.2055 23.6341 17.7653 23.7855 17.673 23.7873C17.5806 23.7891 17.2694 23.9297 16.9817 24.0994C16.6438 24.2988 16.2246 24.4082 15.7988 24.4082C15.373 24.4082 14.9538 24.2988 14.6159 24.0994ZM38.7556 31.6299C38.7556 27.744 36.174 24.4877 32.31 23.4994C29.4487 22.7676 26.5409 23.5945 24.3814 25.7538C21.2705 28.8648 21.0239 33.7469 23.8097 37.0717C25.8564 39.5144 29.0342 40.6184 32.1645 39.9745C34.5178 39.4905 36.8339 37.6648 37.8837 35.4661C38.5577 34.0545 38.7556 33.1839 38.7556 31.6299ZM13.6397 29.4624C12.1002 28.7519 11.0103 27.5305 11.0103 26.5159C11.0103 26.1158 10.9491 25.9058 10.8342 25.9106C10.4476 25.9268 7.88518 26.9456 6.26299 27.7281C4.28546 28.6819 3.46845 29.2016 2.51328 30.1129C1.45586 31.1221 1.29234 31.5477 1.29234 33.2917V34.7761H11.2366C20.6497 34.7761 21.1758 34.763 21.0855 34.5297C21.0331 34.3942 20.9549 34.1088 20.912 33.8959C20.8641 33.6586 20.7738 33.4494 20.7738 33.4494C20.7738 33.4494 20.7047 33.217 20.6792 32.5175C20.6636 32.0903 20.6361 32.0858 20.6792 31.2278C20.7461 29.8959 21.039 28.7613 21.6503 27.4671C21.9208 26.8942 22.1252 26.4099 22.1042 26.391C22.054 26.3458 20.7373 25.9033 20.6528 25.9033C20.6168 25.9033 20.5873 26.1789 20.5873 26.5159C20.5873 27.5305 19.4974 28.7519 17.9579 29.4624C16.9709 29.9179 14.6267 29.9179 13.6397 29.4624Z" fill="#EDE66A"/>
<path fill-rule="evenodd" clip-rule="evenodd" d="M29.9988 27.6045C29.9988 27.6045 29.7875 27.6045 29.2114 27.7178C26.7703 28.4667 26.7491 31.297 29.1785 32.0874L29.9947 32.3931L30.7278 32.5708C30.8785 32.5708 31.4341 32.6652 31.6282 32.8396C32.2191 33.3706 32.179 34.1049 31.5376 34.496C31.1912 34.7072 30.8438 34.7169 30.7278 34.7169H29.9947C29.5763 34.7169 28.8783 34.3694 28.7136 33.9331C28.5662 33.5425 28.4996 33.5086 27.8801 33.5086C27.2671 33.5086 27.2068 33.5383 27.2068 33.8398C27.2068 34.654 28.3325 35.6813 29.4001 35.8413C29.9372 35.9219 29.9988 35.914 29.9988 35.914V36.6182H30.703C30.703 36.4484 30.703 35.914 30.703 35.914C30.703 35.914 31.084 35.8674 31.2493 35.8364C32.6629 35.5712 33.4041 34.7643 33.4032 33.492C33.4023 32.2288 32.6749 31.4482 31.2493 31.1808L30.7278 31.0829L30.0236 30.9142C29.858 30.8681 29.6298 30.7819 29.329 30.6263C28.6288 30.2643 28.6401 29.4371 29.3518 28.9385C29.6145 28.7545 29.858 28.7312 30.0236 28.7312H30.7278C30.9959 28.7312 31.6849 29.1786 31.8241 29.4841C31.9662 29.7959 32.0786 29.8468 32.6262 29.8468C33.1742 29.8468 33.2629 29.8065 33.2629 29.558C33.2629 28.7612 32.2612 27.8053 31.2559 27.6428C31.1038 27.6182 30.7734 27.6045 30.7734 27.6045V26.7483H29.9988V27.6045Z" fill="#EDE66A"/>
</svg>
