<svg width="42" height="35" viewBox="0 0 42 35" fill="none" xmlns="http://www.w3.org/2000/svg">
<path opacity="0.2" d="M2.43544 30.9225C2.82172 31.2094 3.208 31.5025 3.29359 31.5739C3.38276 31.648 3.18248 32.0924 2.82564 32.6131C2.11042 33.6561 2.0655 33.8571 2.54826 33.8571C3.07085 33.8571 3.66558 33.4142 4.34335 32.5202L4.95357 31.7151L11.8734 31.7162L18.7932 31.7174L19.2187 32.3333C19.8714 33.2783 20.5968 33.8571 21.1284 33.8571C21.3883 33.8571 21.601 33.8127 21.601 33.7584C21.601 33.7041 21.3214 33.221 20.9797 32.6849C20.6378 32.1488 20.3891 31.689 20.4267 31.6635C20.4641 31.6378 20.8882 31.3054 21.3689 30.9248C22.1174 30.3321 22.2594 30.1263 22.3577 29.4909L22.4728 28.7491H27.2046H31.9364L32.0326 29.4437C32.1748 30.4712 32.4047 30.5617 34.874 30.5617C37.4105 30.5617 37.59 30.4834 37.7255 29.3194C37.7439 29.1611 37.7506 29.0315 37.7561 28.9224C37.7711 28.629 37.7786 28.4832 37.9881 28.3238L38.6177 28.241V21.5084V15.1157L39.394 15.031C39.8772 14.9783 40.327 14.8038 40.5851 14.569C40.9796 14.2101 41 14.0956 41 12.2354C41 10.3784 40.9789 10.259 40.5822 9.87503C40.3525 9.65258 39.9889 9.46952 39.7739 9.4682C39.5592 9.46705 39.217 9.42272 39.0136 9.36999C38.6532 9.2764 38.6423 9.19467 38.5882 6.20023C38.5254 2.7337 38.408 2.35669 37.1294 1.51733C37.1294 1.51733 36.9004 1.33917 36.4522 1.16558C36.0041 0.991983 28.0673 1.02416 28.0673 1.02416C23.4345 0.983626 18.4189 0.995325 16.9214 1.05003C14.6274 1.13374 14.1111 1.2008 13.6418 1.47548C12.9118 1.9029 12.3005 2.79598 12.1617 3.63814L12.0502 4.31438L10.4018 4.42264C9.49515 4.48228 8.21958 4.64096 7.56716 4.77542C5.7229 5.15506 2.90034 6.57492 3.27198 6.93611C3.34584 7.00779 4.03501 6.75519 4.80349 6.37489C5.99635 5.78466 8.10234 5.19477 8.83848 5.18637V6.75173V8.12072H7.56716C6.24854 8.12072 4.86582 8.56194 3.94403 9.12547C3.07584 9.65621 1.64032 10.6047 1.2137 12.5091C0.963728 13.3311 0.960655 22.4021 1.06412 26.1148C1.1718 29.9843 1.48951 30.2202 2.43025 30.9186M2.43544 30.9225L2.43025 30.9186M2.43544 30.9225C2.43371 30.9212 2.43198 30.9199 2.43025 30.9186M36.6235 2.26392C37.2526 2.66317 37.6103 3.23857 37.7195 4.02668L37.8116 4.69204H26.8515C17.1421 4.69204 13.2557 4.57522 12.9444 4.27401C12.8093 4.14318 13.43 2.69345 13.7562 2.40757C13.9363 2.24971 14.3517 2.12238 14.6597 2.05005C14.9677 1.97771 19.9325 1.93092 25.6926 1.94591C35.3836 1.97129 36.1998 1.99501 36.6235 2.26392ZM12.0717 6.75898V8.12072H10.7889H9.55522V6.71053V5.18637H10.7889H12.0717V6.75898ZM14.1137 6.99889V8.12072H13.5181H12.9225V6.99889V5.68069H13.5181H14.1137V6.99889ZM18.9437 6.35066C20.7051 7.24935 21.1557 7.10237 19.6471 6.1213L18.9695 5.68069H28.3682H37.7668V11.283V16.8854H30.1444H22.5219V14.4135C22.4475 11.9252 22.0651 11.5058 21.0285 10.3691C20.9958 10.3332 20.9625 10.2966 20.9285 10.2593C19.8524 9.0767 18.5796 8.22683 16.6572 8.12072H14.9645V6.97598V5.68069H16.2974C17.5274 5.68069 17.7319 5.73243 18.9437 6.35066ZM18.0275 8.96959C19.6471 9.46415 21.5494 11.5775 21.7317 13.4142L21.8144 14.249H11.8423H1.97429C1.97429 14.249 1.9816 12.9231 2.06692 12.5091C2.49992 11.3729 3.91317 9.07434 6.1022 8.96959C7.28979 8.76231 17.2677 8.73759 18.0275 8.96959ZM5.77548 18.8681V22.5701H3.81533H1.97429V18.8215V15.0728H3.81533H5.77548V18.8681ZM17.1767 18.865V22.5701H11.8423H6.54123L6.49545 18.8215L6.44968 15.0728H11.7977H17.1767V18.865ZM21.7712 18.8627V22.5701H19.8993H18.0275V18.8627V15.0728H19.8993H21.7712V18.8627ZM37.7668 22.5566C37.7668 25.132 37.7204 27.3565 37.6635 27.4998C37.5715 27.7321 36.7394 27.7605 30.0278 27.7605H22.4954L22.4704 22.8172L22.4452 17.874H30.1061H37.7668V22.5566ZM21.7712 26.2698C21.7712 28.1543 21.6999 29.3794 21.5748 29.6453C21.0325 30.7979 19.9351 30.9247 11.1116 30.854C5.2735 30.8071 3.15576 30.8903 2.37409 29.9394C1.85624 29.3094 1.9248 28.2255 1.88649 26.349L1.82437 23.3116H11.7977H21.7712V26.2698Z" stroke="#FB4B81"/>
</svg>
