<svg width="18" height="18" viewBox="0 0 18 18" fill="none" xmlns="http://www.w3.org/2000/svg">
<path fill-rule="evenodd" clip-rule="evenodd" d="M1.21014 1.21476C0.5445 1.88284 0 2.50734 0 2.60255C0 2.69758 1.39644 4.16803 3.10302 5.87031L6.20622 8.96504L3.07152 12.0913C0.224279 14.9309 -0.0396004 15.2463 0.1935 15.5296C0.51462 15.9201 1.782 17.1876 2.31498 17.6513L2.71602 18L5.85792 14.8741L9 11.748L12.1421 14.8741L15.284 18L15.685 17.6513C16.218 17.1876 17.4854 15.9201 17.8065 15.5296C18.0396 15.2463 17.7757 14.9309 14.9285 12.0913L11.7938 8.96504L14.897 5.87031C16.6036 4.16803 18 2.69345 18 2.59323C18 2.36193 15.6204 0 15.3873 0C15.2919 0 13.8157 1.39102 12.1068 3.09097L9 6.18211L5.8932 3.09097C4.18428 1.39102 2.70396 0 2.60334 0C2.50272 0 1.87578 0.546687 1.21014 1.21476Z" fill="#464C55"/>
</svg>
