<svg width="24" height="23" viewBox="0 0 24 23" fill="none" xmlns="http://www.w3.org/2000/svg">
<path fill-rule="evenodd" clip-rule="evenodd" d="M19.9414 0.155564C19.6944 0.291022 18.5426 1.92075 14.3732 8.03494C11.4818 12.2746 9.05777 15.8033 8.98631 15.8762C8.87272 15.9923 8.53367 15.6894 6.29183 13.4689C4.09884 11.2969 3.6788 10.9201 3.39269 10.8681C2.80703 10.7617 2.52201 10.9374 1.29104 12.1636C0.376047 13.075 0.112274 13.3931 0.0523466 13.6572C-0.114997 14.3945 -0.132703 14.3728 4.0755 18.5669C7.35255 21.8329 8.08285 22.517 8.5315 22.7407C9.41888 23.1832 10.1591 23.0609 10.8236 22.362C11.1289 22.0408 23.612 3.77249 23.8814 3.2525C24.0679 2.89269 24.0317 2.3995 23.7923 2.03636C23.705 1.90397 23.0509 1.40654 22.3386 0.930859C20.8834 -0.0408988 20.5164 -0.159571 19.9414 0.155564Z" fill="#4851FB"/>
</svg>
