<svg width="38" height="30" viewBox="0 0 38 30" fill="none" xmlns="http://www.w3.org/2000/svg">
<path fill-rule="evenodd" clip-rule="evenodd" d="M11.1059 0.778709C6.08582 2.09861 6.19633 2.01189 2.59746 7.4552C1.16887 9.61599 0 11.4773 0 11.5915C0 11.7058 0.0865382 11.8875 0.192429 11.9956C0.452264 12.261 5.50787 15 5.73769 15C6.13036 15 6.2942 14.8361 7.16233 13.5746C7.6567 12.8561 8.12777 12.2027 8.20914 12.1228C8.33296 12.0008 8.35693 13.4095 8.35693 20.8243C8.35693 29.2689 8.36605 29.6786 8.55804 29.8356C8.74212 29.9861 9.62036 30 18.9322 30C28.648 30 29.1133 29.9919 29.2872 29.8183C29.4537 29.6521 29.4692 28.8837 29.4692 20.807C29.4692 13.4067 29.4931 12.0008 29.6169 12.1228C29.6983 12.2027 30.1725 12.8606 30.6708 13.5846C31.6198 14.9636 31.8441 15.1406 32.3687 14.9247C32.9498 14.6854 37.4592 12.1793 37.6337 11.9985C37.7394 11.8888 37.8261 11.7058 37.8261 11.5915C37.8261 11.3278 32.765 3.68374 32.2482 3.16699C31.1851 2.10387 30.191 1.67841 26.6034 0.750795L23.6996 0L18.8597 0.00625825L14.0198 0.012616L11.1059 0.778709ZM22.3218 1.42093C22.3218 1.6496 21.6972 2.44907 21.3103 2.7157C20.7416 3.10758 20.1615 3.29086 19.3049 3.34917C18.2938 3.41811 17.3941 3.24258 16.7424 2.84911C16.2328 2.54136 15.5043 1.70593 15.5043 1.42917C15.5043 1.31464 16.0798 1.29139 18.913 1.29139C21.6423 1.29139 22.3218 1.31722 22.3218 1.42093ZM14.1713 2.14093C15.3593 4.43434 18.6915 5.41719 21.3322 4.25295C22.284 3.83334 23.2182 2.98371 23.6548 2.14093C23.8402 1.78291 23.9997 1.49126 24.009 1.49275C24.0185 1.49424 24.8426 1.7093 25.8405 1.97076C27.4064 2.38083 27.6525 2.47232 27.6383 2.63851C27.6292 2.7445 27.5427 3.18149 27.4459 3.60974C27.102 5.13209 27.2713 7.69977 27.8126 9.16927C28.038 9.78119 28.0405 9.90507 28.0127 19.2238L27.9847 28.6589H18.913H9.84138L9.81334 19.2238C9.78563 9.90507 9.78805 9.78119 10.0135 9.16927C10.5548 7.69977 10.7241 5.13209 10.3802 3.60974C10.2834 3.18149 10.1969 2.74421 10.1878 2.63791C10.1736 2.47142 10.414 2.38033 11.9306 1.97752C12.8983 1.72063 13.7224 1.50576 13.7621 1.5002C13.8017 1.49464 13.9859 1.78291 14.1713 2.14093ZM8.80193 3.39477C9.02229 4.13394 9.10278 5.35421 9.00745 6.50841C8.90727 7.72053 8.86813 7.9343 8.60972 8.67666C8.44929 9.13778 5.6992 13.2312 5.5104 13.29C5.38736 13.3283 1.86931 11.419 1.86931 11.314C1.86931 11.1229 6.32817 4.48709 6.69335 4.13464C7.12516 3.71772 8.30162 2.98013 8.53462 2.98013C8.61368 2.98013 8.73398 3.16669 8.80193 3.39477ZM30.0844 3.36477C30.4415 3.57626 30.9133 3.92275 31.1327 4.13464C31.4979 4.48709 35.9568 11.1229 35.9568 11.314C35.9568 11.419 32.4387 13.3283 32.3157 13.29C32.1269 13.2312 29.3768 9.13778 29.2164 8.67666C28.958 7.9343 28.9188 7.72053 28.8186 6.50841C28.6837 4.8755 28.9377 2.98013 29.2915 2.98013C29.3704 2.98013 29.7272 3.15318 30.0844 3.36477Z" fill="#4851FB"/>
</svg>
