<svg width="15" height="16" viewBox="0 0 15 16" fill="none" xmlns="http://www.w3.org/2000/svg">
<path fill-rule="evenodd" clip-rule="evenodd" d="M4.40247 0.112875C4.27951 0.174915 4.11044 0.31864 4.02674 0.432145C3.88516 0.624231 3.87334 0.673805 3.85726 1.14393L3.83997 1.64922H2.04151H0.242993L0.11851 1.76831C-0.0395033 1.91936 -0.0395033 2.05818 0.11851 2.20923C0.21418 2.30076 0.296408 2.32832 0.473596 2.32832H0.704149V8.40866C0.704149 12.8252 0.719925 14.5341 0.761876 14.6539C0.85156 14.91 1.03575 15.1146 1.27751 15.2265C1.49655 15.3278 1.52962 15.3287 4.92678 15.3163L8.35499 15.3038L8.10486 14.9764L7.85478 14.649H4.7185C1.74455 14.649 1.57786 14.6444 1.49827 14.5603C1.42112 14.4787 1.41432 13.9816 1.41432 8.39993V2.32832H6.28408H11.1538V5.5055V8.68268H11.5089H11.864V5.5055V2.32832H12.0946C12.2717 2.32832 12.354 2.30076 12.4496 2.20923C12.6077 2.05818 12.6077 1.91936 12.4496 1.76831L12.3252 1.64922H10.5266H8.72819L8.71089 1.14393C8.69481 0.673805 8.68299 0.624231 8.54141 0.432145C8.45771 0.31864 8.28864 0.174915 8.16568 0.112875C7.94481 0.00135817 7.92184 0 6.28408 0C4.64632 0 4.62334 0.00135817 4.40247 0.112875ZM7.916 0.75937C7.99179 0.824903 8.00878 0.913864 8.00878 1.24444V1.64922H6.28408H4.55937V1.25288C4.55937 0.638831 4.439 0.679092 6.27525 0.679092C7.64451 0.679092 7.83398 0.688357 7.916 0.75937ZM3.98286 4.07809L3.8492 4.1786V8.49219C3.8492 12.7411 3.85072 12.8072 3.95065 12.9027C4.0833 13.0296 4.31477 13.0272 4.43737 12.8977C4.53086 12.7988 4.53401 12.6557 4.53401 8.47929V4.16298L4.41424 4.07028C4.26034 3.9511 4.14899 3.95314 3.98286 4.07809ZM6.05352 4.09662L5.92899 4.21566V8.47992C5.92899 12.7205 5.9296 12.7449 6.03415 12.8719C6.10384 12.9567 6.18805 12.9998 6.28408 12.9998C6.3801 12.9998 6.46431 12.9567 6.53401 12.8719C6.63855 12.7449 6.63916 12.7205 6.63916 8.47992V4.21566L6.51463 4.09662C6.44615 4.03114 6.34241 3.97754 6.28408 3.97754C6.22574 3.97754 6.122 4.03114 6.05352 4.09662ZM8.24902 4.01111C8.01177 4.07028 8.00868 4.11438 8.01046 7.3827L8.01218 10.4532L8.1148 10.3319C8.17131 10.2652 8.33034 10.0866 8.46821 9.93497L8.71895 9.65931V6.91898V4.1786L8.58529 4.07809C8.45112 3.97715 8.41444 3.96983 8.24902 4.01111ZM11.0288 9.36473C10.2535 9.47915 9.65542 9.77407 9.07003 10.3305C8.37351 10.9927 8.04226 11.745 8.04434 12.6602C8.04561 13.2208 8.15249 13.671 8.39329 14.1298C8.9697 15.228 10.0391 15.9114 11.3078 15.9925C11.9168 16.0314 12.4712 15.9195 13.0803 15.6347C13.474 15.4507 13.6358 15.3385 13.9728 15.0162C14.3098 14.694 14.4271 14.5393 14.6195 14.1629C15.2594 12.9116 15.0853 11.5495 14.149 10.4801C13.4395 9.66969 12.1311 9.20199 11.0288 9.36473ZM12.0923 10.0656C12.6336 10.1748 13.045 10.392 13.4597 10.7876C14.0317 11.3332 14.2965 11.9329 14.2981 12.6864C14.3013 14.1121 13.0273 15.3304 11.5363 15.3273C10.7498 15.3258 10.12 15.0721 9.55594 14.5297C8.88625 13.8856 8.61004 13.0622 8.77318 12.1962C8.92374 11.3969 9.52409 10.6469 10.2995 10.2894C10.9393 9.99454 11.4336 9.93284 12.0923 10.0656ZM10.0609 11.2756C9.85011 11.4771 9.89333 11.5658 10.4798 12.1348L11.0232 12.6622L10.5081 13.1584C10.2249 13.4313 9.97905 13.7101 9.96191 13.778C9.91696 13.9555 10.0991 14.1639 10.2991 14.1639C10.4242 14.1639 10.5486 14.0732 10.9929 13.6576L11.5343 13.1513L12.072 13.6576C12.649 14.2009 12.7788 14.2593 12.98 14.0669C13.1812 13.8745 13.1201 13.7504 12.552 13.1987L12.0225 12.6845L12.552 12.1668C12.9866 11.7419 13.0814 11.623 13.0814 11.5033C13.0814 11.3121 12.8635 11.1379 12.6778 11.1809C12.6068 11.1973 12.3153 11.4324 12.0299 11.7032L11.5109 12.1957L10.9595 11.6761C10.3644 11.1153 10.2717 11.074 10.0609 11.2756Z" fill="#969CA4"/>
</svg>
