<svg width="37" height="38" viewBox="0 0 37 38" fill="none" xmlns="http://www.w3.org/2000/svg">
<g opacity="0.4" filter="url(#filter0_d_97_1409)">
<path fill-rule="evenodd" clip-rule="evenodd" d="M9.81175 0.183077C6.0542 1.10671 3.56704 4.52213 4.06282 8.07741C4.57361 11.7393 7.77276 14.4116 11.6645 14.4272C13.0323 14.4327 13.9062 14.2371 15.1629 13.6441L16.1146 13.195L18.7066 16.1603L21.2985 19.1256V22.5074V25.8892L20.7659 25.9886C19.9374 26.1431 17.9033 26.6517 17.0836 26.9094C15.3065 27.4679 14.1477 28.1369 13.8058 28.8019C13.5601 29.2796 13.5593 29.48 13.8018 29.7702L13.9938 30H21.9006H29.8075L30.0079 29.7602C30.1579 29.5806 30.1955 29.4463 30.1572 29.2248C29.9544 28.0481 28.1369 27.1469 24.1078 26.2251L22.503 25.8579L22.5032 22.5007L22.5033 19.1434L27.598 13.3057C31.9375 8.33317 32.6926 7.42715 32.6926 7.19328C32.6926 6.60266 33.0544 6.63362 25.8774 6.60886L19.3995 6.58645L19.3736 6.36844C19.2488 5.31697 18.6422 3.87501 17.9305 2.93759C16.916 1.60149 15.3371 0.601992 13.5718 0.178543C12.572 -0.0613483 10.7975 -0.0591682 9.81175 0.183077ZM13.2737 1.45395C15.4657 1.97254 17.2401 3.66747 17.8217 5.79815C18.0655 6.69126 18.154 6.63005 16.6204 6.63005C15.3958 6.63005 15.0875 6.57633 15.3699 6.41204C15.4208 6.38239 15.4625 6.2488 15.4625 6.11521C15.4625 5.86677 15.2759 5.65636 14.9621 5.55093C14.6432 5.44376 13.8461 5.74399 13.0227 6.28133C12.5769 6.57214 12.1714 6.78631 12.1214 6.75727C12.0648 6.72431 12.0531 6.32066 12.0903 5.68618C12.1595 4.5087 12.0606 4.027 11.694 3.75554C11.4215 3.55376 11.1734 3.58288 10.8771 3.8512C10.6002 4.10199 10.6488 4.97531 10.9964 5.99164C11.3252 6.9533 11.2761 7.06169 10.6471 6.76163C9.50902 6.21872 8.2389 6.02417 7.93802 6.34664C7.68569 6.61723 7.66457 6.84831 7.86984 7.09396C8.16016 7.44145 8.82788 7.58926 10.1065 7.58926C10.7086 7.58926 11.2013 7.6217 11.2013 7.66129C11.2013 7.70088 11.093 7.82837 10.9605 7.94469C10.5379 8.31573 9.81768 9.21478 9.62843 9.60736C9.39397 10.0938 9.39332 10.4218 9.62648 10.6413C10.1693 11.1523 10.8763 10.4104 11.473 8.70334L11.678 8.117L13.4418 10.1309C14.8042 11.6867 15.1768 12.1638 15.0793 12.2278C14.7573 12.4396 13.784 12.8298 13.2393 12.9656C12.4473 13.1631 10.9846 13.1646 10.1823 12.9688C8.4452 12.5448 6.86272 11.3652 6.12265 9.94265C5.03984 7.86107 5.16824 5.74181 6.48977 3.8819C7.96535 1.80502 10.6684 0.83761 13.2737 1.45395ZM30.6546 7.83587C30.6546 7.87563 30.3207 8.28766 29.9126 8.75148L29.1706 9.59489H21.9016H14.6327L13.8896 8.74729C13.4809 8.28112 13.1466 7.86909 13.1466 7.83168C13.1466 7.79427 17.0859 7.76366 21.9006 7.76366C26.7153 7.76366 30.6546 7.79619 30.6546 7.83587ZM27.9933 10.9247C27.5588 11.4496 22.2483 17.5342 22.0876 17.6914L21.878 17.8963L18.8886 14.465C17.2444 12.5778 15.8583 10.9847 15.8084 10.9247C15.736 10.8378 16.9677 10.8157 21.9006 10.8157C26.8334 10.8157 28.0653 10.8378 27.9933 10.9247ZM23.2902 27.2891C24.9223 27.6293 26.3039 28.0163 27.2875 28.4087L28.1072 28.7356L25.0338 28.7585C23.3434 28.7712 20.5505 28.7712 18.8273 28.7585L15.6941 28.7356L16.5029 28.4129C17.6848 27.9414 21.1354 27.058 21.8543 27.0429C21.9817 27.0402 22.6278 27.151 23.2902 27.2891Z" fill="#FF8B4F"/>
</g>
<defs>
<filter id="filter0_d_97_1409" x="0" y="0" width="36.6957" height="38" filterUnits="userSpaceOnUse" color-interpolation-filters="sRGB">
<feFlood flood-opacity="0" result="BackgroundImageFix"/>
<feColorMatrix in="SourceAlpha" type="matrix" values="0 0 0 0 0 0 0 0 0 0 0 0 0 0 0 0 0 0 127 0" result="hardAlpha"/>
<feOffset dy="4"/>
<feGaussianBlur stdDeviation="2"/>
<feComposite in2="hardAlpha" operator="out"/>
<feColorMatrix type="matrix" values="0 0 0 0 0 0 0 0 0 0 0 0 0 0 0 0 0 0 0.15 0"/>
<feBlend mode="normal" in2="BackgroundImageFix" result="effect1_dropShadow_97_1409"/>
<feBlend mode="normal" in="SourceGraphic" in2="effect1_dropShadow_97_1409" result="shape"/>
</filter>
</defs>
</svg>
