<svg width="42" height="34" viewBox="0 0 42 34" fill="none" xmlns="http://www.w3.org/2000/svg">
<path d="M12.7473 1.68017L12.0436 0.969618V0.969618L12.7473 1.68017ZM12.2955 8.39156V9.39156H13.2955V8.39156H12.2955ZM1.00002 12.4184L0.0371843 12.1483L2.22325e-05 12.2808V12.4184H1.00002ZM28.5609 8.39156H27.5609V9.39156H28.5609V8.39156ZM28.1091 1.68017L28.8127 0.969618V0.969618L28.1091 1.68017ZM20.4282 1.00903L20.408 2.00883L20.4282 2.00923L20.4484 2.00883L20.4282 1.00903ZM25.3778 8.39156V9.39156H26.3778V8.39156H25.3778ZM15.6751 8.39156H14.6751V9.39156H15.6751V8.39156ZM15.6751 4.81215V3.81215H14.6751V4.81215H15.6751ZM25.3778 4.81215H26.3778V3.81215H25.3778V4.81215ZM1 21.3669L0 21.3669V21.3669L1 21.3669ZM40.3081 32.1052L39.6045 31.3946L40.3081 32.1052ZM1.00002 16.8927L2.00002 16.8927V16.8927H1.00002ZM22.2354 18.6824H21.2354V19.6824H22.2354V18.6824ZM25.85 18.6824H26.85V17.6824H25.85V18.6824ZM25.85 22.2618V23.2618H26.85V22.2618H25.85ZM22.2354 22.2618V21.2618H21.2354V22.2618H22.2354ZM22.2354 25.8412V26.8412H23.2354V25.8412H22.2354ZM18.6209 25.8412H17.6209V26.8412H18.6209V25.8412ZM18.6209 22.2618H19.6209V21.2618H18.6209V22.2618ZM15.0064 22.2618H14.0064V23.2618H15.0064V22.2618ZM15.0064 18.6824V17.6824H14.0064V18.6824H15.0064ZM18.6209 18.6824V19.6824H19.6209V18.6824H18.6209ZM18.6209 15.103V14.103H17.6209V15.103H18.6209ZM22.2354 15.103H23.2354V14.103H22.2354V15.103ZM12.0436 0.969618C11.4613 1.54625 11.3374 2.36688 11.2978 2.95514C11.2574 3.55441 11.2955 4.30644 11.2955 4.81215H13.2955C13.2955 4.12458 13.2583 3.60882 13.2932 3.08953C13.329 2.55922 13.4309 2.4105 13.4509 2.39072L12.0436 0.969618ZM11.2955 4.81215V8.39156H13.2955V4.81215H11.2955ZM12.2955 7.39156H8.22909V9.39156H12.2955V7.39156ZM8.22909 7.39156C4.93514 7.39156 2.87482 8.48871 1.63339 9.68486C1.02321 10.2728 0.631286 10.8649 0.389328 11.3189C0.268263 11.546 0.184105 11.7398 0.128406 11.8831C0.100529 11.9548 0.079688 12.0141 0.0648494 12.0589C0.0574272 12.0814 0.0514972 12.1002 0.0469313 12.1152C0.0446481 12.1227 0.042705 12.1292 0.0410861 12.1347C0.0402766 12.1375 0.039548 12.14 0.0388984 12.1423C0.0385736 12.1434 0.0382686 12.1445 0.0379829 12.1455C0.0378404 12.146 0.03764 12.1467 0.0375691 12.1469C0.0373743 12.1476 0.0371843 12.1483 1.00002 12.4184C1.96286 12.6885 1.96268 12.6891 1.9625 12.6898C1.96245 12.6899 1.96227 12.6906 1.96217 12.6909C1.96195 12.6917 1.96175 12.6924 1.96156 12.6931C1.96119 12.6943 1.96089 12.6954 1.96064 12.6962C1.96016 12.6979 1.95993 12.6987 1.95997 12.6985C1.96005 12.6983 1.9612 12.6945 1.96354 12.6874C1.96823 12.6732 1.97761 12.646 1.99254 12.6077C2.02243 12.5307 2.07417 12.4099 2.15431 12.2595C2.31475 11.9585 2.58643 11.5439 3.02108 11.1251C3.8693 10.3078 5.42352 9.39156 8.22909 9.39156V7.39156ZM2.22325e-05 12.4184V14.6555H2.00002V12.4184H2.22325e-05ZM41.9859 14.6555V12.4184H39.9859V14.6555H41.9859ZM40.9859 12.4184C41.9859 12.4184 41.9859 12.4176 41.9859 12.4168C41.9859 12.4165 41.9858 12.4157 41.9858 12.4151C41.9858 12.414 41.9858 12.4128 41.9858 12.4115C41.9858 12.4089 41.9858 12.4061 41.9857 12.403C41.9857 12.3969 41.9855 12.3897 41.9853 12.3815C41.9849 12.3652 41.9842 12.3449 41.9829 12.3209C41.9804 12.2729 41.9758 12.2098 41.9673 12.1339C41.9502 11.9822 41.9175 11.777 41.8544 11.5359C41.7283 11.0542 41.478 10.4193 40.9816 9.7873C39.957 8.48275 38.0503 7.39156 34.6604 7.39156V9.39156C37.596 9.39156 38.852 10.3138 39.4087 11.0227C39.703 11.3973 39.8481 11.7691 39.9196 12.0425C39.9553 12.1789 39.972 12.2883 39.9797 12.3569C39.9836 12.391 39.9851 12.4145 39.9857 12.4255C39.986 12.4309 39.986 12.4333 39.986 12.4322C39.986 12.4316 39.9859 12.4302 39.9859 12.4279C39.9859 12.4268 39.9859 12.4254 39.9859 12.4238C39.9859 12.4231 39.9859 12.4222 39.9859 12.4213C39.9859 12.4208 39.9859 12.4201 39.9859 12.4199C39.9859 12.4191 39.9859 12.4184 40.9859 12.4184ZM34.6604 7.39156H28.5609V9.39156H34.6604V7.39156ZM29.5609 8.39156V4.81215H27.5609V8.39156H29.5609ZM29.5609 4.81215C29.5609 4.30643 29.5989 3.55442 29.5586 2.95513C29.5189 2.36687 29.395 1.54625 28.8127 0.969618L27.4054 2.39072C27.4254 2.41051 27.5274 2.55923 27.5631 3.08954C27.5981 3.60882 27.5609 4.12459 27.5609 4.81215H29.5609ZM28.8127 0.969618C28.5118 0.671625 28.0894 0.532216 27.8113 0.455153C27.4825 0.363997 27.0965 0.295683 26.6958 0.242382C25.8904 0.13526 24.9189 0.0752717 23.9985 0.041578C23.0731 0.0076986 22.1764 -0.000342488 21.5128 1.10269e-05C21.1804 0.000187993 20.9054 0.00247145 20.713 0.00471932C20.6167 0.00584352 20.5411 0.00695962 20.4892 0.00780064C20.4633 0.00822121 20.4433 0.00857306 20.4296 0.00882292C20.4228 0.00894785 20.4175 0.00904733 20.4139 0.00911713C20.4121 0.009152 20.4107 0.00917947 20.4097 0.00919902C20.4092 0.0092088 20.4088 0.00921661 20.4085 0.00922233C20.4084 0.00922519 20.4082 0.00922799 20.4082 0.00922942C20.408 0.00923163 20.408 0.00923336 20.4282 1.00903C20.4484 2.00883 20.4483 2.00883 20.4483 2.00883C20.4484 2.00883 20.4484 2.00882 20.4485 2.00882C20.4486 2.00882 20.4488 2.00882 20.4492 2.00881C20.4498 2.0088 20.4509 2.00878 20.4524 2.00875C20.4554 2.00869 20.46 2.0086 20.4662 2.00849C20.4785 2.00826 20.4971 2.00794 20.5217 2.00754C20.5707 2.00674 20.6433 2.00567 20.7363 2.00458C20.9224 2.00241 21.19 2.00018 21.5138 2.00001C22.1625 1.99967 23.0328 2.00756 23.9254 2.04024C24.823 2.0731 25.7206 2.13028 26.4321 2.22492C26.7898 2.2725 27.0741 2.32622 27.2771 2.38248C27.5309 2.45284 27.5019 2.48625 27.4054 2.39072L28.8127 0.969618ZM20.4282 1.00903C20.4484 0.00923336 20.4483 0.00923163 20.4482 0.00922942C20.4481 0.00922799 20.448 0.00922519 20.4478 0.00922233C20.4475 0.00921661 20.4471 0.0092088 20.4467 0.00919902C20.4457 0.00917947 20.4443 0.009152 20.4424 0.00911713C20.4388 0.00904733 20.4336 0.00894785 20.4267 0.00882292C20.413 0.00857306 20.393 0.00822121 20.3671 0.00780064C20.3152 0.00695962 20.2396 0.00584352 20.1434 0.00471932C19.9509 0.00247145 19.6759 0.000187993 19.3436 1.10269e-05C18.6799 -0.000342488 17.7833 0.0076986 16.8578 0.041578C15.9374 0.0752717 14.9659 0.13526 14.1606 0.242382C13.7598 0.295683 13.3738 0.363997 13.045 0.455153C12.767 0.532215 12.3445 0.671625 12.0436 0.969618L13.4509 2.39072C13.3544 2.48625 13.3254 2.45284 13.5792 2.38248C13.7822 2.32622 14.0666 2.2725 14.4243 2.22492C15.1358 2.13028 16.0333 2.0731 16.931 2.04024C17.8235 2.00756 18.6938 1.99967 19.3425 2.00001C19.6664 2.00018 19.9339 2.00241 20.12 2.00458C20.213 2.00567 20.2856 2.00674 20.3347 2.00754C20.3592 2.00794 20.3778 2.00826 20.3902 2.00849C20.3964 2.0086 20.401 2.00869 20.4039 2.00875C20.4054 2.00878 20.4065 2.0088 20.4072 2.00881C20.4075 2.00882 20.4078 2.00882 20.4079 2.00882C20.408 2.00882 20.408 2.00883 20.408 2.00883C20.408 2.00883 20.408 2.00883 20.4282 1.00903ZM24.3778 6.68713V8.39156H26.3778V6.68713H24.3778ZM25.3778 7.39156H20.4282V9.39156H25.3778V7.39156ZM20.4282 7.39156H15.6751V9.39156H20.4282V7.39156ZM16.6751 8.39156V6.58942H14.6751V8.39156H16.6751ZM16.6751 6.58942V4.81215H14.6751V6.58942H16.6751ZM15.6751 5.81215H20.3092V3.81215H15.6751V5.81215ZM20.3092 5.81215H25.3778V3.81215H20.3092V5.81215ZM24.3778 4.81215V6.68713H26.3778V4.81215H24.3778ZM0 21.3669C1.10269e-05 26.151 0.054836 28.6812 0.233463 30.1271C0.323803 30.8583 0.454732 31.4012 0.676613 31.8469C0.907151 32.31 1.20407 32.596 1.4259 32.8157L2.83319 31.3946C2.6032 31.1668 2.53302 31.0882 2.46706 30.9557C2.39243 30.8058 2.29746 30.522 2.21837 29.8818C2.05814 28.5849 2.00001 26.1934 2 21.3669L0 21.3669ZM1.4259 32.8157C1.72083 33.1078 2.12146 33.2623 2.44437 33.3587C2.80003 33.4649 3.22839 33.5468 3.70816 33.6131C4.67026 33.746 5.95345 33.8313 7.51538 33.8875C10.644 34.0002 15.0146 34 20.4282 34V32C14.9981 32 10.6712 31.9998 7.58735 31.8888C6.04303 31.8332 4.84121 31.7506 3.98192 31.6319C3.55099 31.5724 3.23456 31.5074 3.01662 31.4423C2.76594 31.3675 2.76417 31.3262 2.83319 31.3946L1.4259 32.8157ZM20.4282 34C27.5352 34 32.3089 33.9937 35.4135 33.8777C36.9625 33.8199 38.1344 33.7336 38.9884 33.5994C39.4156 33.5323 39.7934 33.4487 40.1129 33.338C40.4224 33.2309 40.7513 33.0736 41.0118 32.8157L39.6045 31.3946C39.6456 31.3539 39.6335 31.3875 39.4585 31.4481C39.2937 31.5052 39.0436 31.5662 38.6779 31.6237C37.9459 31.7387 36.8712 31.8219 35.3389 31.8791C32.281 31.9933 27.5534 32 20.4282 32V34ZM41.0118 32.8157C41.2154 32.614 41.5118 32.3343 41.7016 31.856C41.8712 31.4288 41.9321 30.9101 41.9642 30.2404C42.029 28.8864 41.9859 26.3587 41.9859 21.3669H39.9859C39.9859 26.4332 40.0283 28.8543 39.9665 30.1447C39.9352 30.7972 39.8798 31.0246 39.8427 31.1181C39.8259 31.1605 39.8253 31.1759 39.6045 31.3946L41.0118 32.8157ZM41.9859 21.3669V16.8927H39.9859V21.3669H41.9859ZM2.22325e-05 16.8927L0 21.3669L2 21.3669L2.00002 16.8927L2.22325e-05 16.8927ZM21.2354 16.8927V18.6824H23.2354V16.8927H21.2354ZM22.2354 19.6824H24.0427V17.6824H22.2354V19.6824ZM24.0427 19.6824H25.85V17.6824H24.0427V19.6824ZM24.85 18.6824V20.4721H26.85V18.6824H24.85ZM24.85 20.4721V22.2618H26.85V20.4721H24.85ZM25.85 21.2618H24.0427V23.2618H25.85V21.2618ZM24.0427 21.2618H22.2354V23.2618H24.0427V21.2618ZM21.2354 22.2618V24.0515H23.2354V22.2618H21.2354ZM21.2354 24.0515V25.8412H23.2354V24.0515H21.2354ZM22.2354 24.8412H20.4282V26.8412H22.2354V24.8412ZM20.4282 24.8412H18.6209V26.8412H20.4282V24.8412ZM19.6209 25.8412V24.0515H17.6209V25.8412H19.6209ZM19.6209 24.0515V22.2618H17.6209V24.0515H19.6209ZM18.6209 21.2618H16.8136V23.2618H18.6209V21.2618ZM16.8136 21.2618H15.0064V23.2618H16.8136V21.2618ZM16.0064 22.2618V20.4721H14.0064V22.2618H16.0064ZM16.0064 20.4721V18.6824H14.0064V20.4721H16.0064ZM15.0064 19.6824H16.8136V17.6824H15.0064V19.6824ZM16.8136 19.6824H18.6209V17.6824H16.8136V19.6824ZM19.6209 18.6824V16.8927H17.6209V18.6824H19.6209ZM19.6209 16.8927V15.103H17.6209V16.8927H19.6209ZM18.6209 16.103H20.4282V14.103H18.6209V16.103ZM20.4282 16.103H22.2354V14.103H20.4282V16.103ZM21.2354 15.103V16.8927H23.2354V15.103H21.2354ZM2.22325e-05 14.6555V16.8927H2.00002V14.6555H2.22325e-05ZM39.9859 14.6555V16.8927H41.9859V14.6555H39.9859Z" fill="#B1B2B5"/>
</svg>
