<svg width="40" height="32" viewBox="0 0 40 32" fill="none" xmlns="http://www.w3.org/2000/svg">
<path fill-rule="evenodd" clip-rule="evenodd" d="M11.7442 0.823462C6.43558 2.21922 6.55244 2.12751 2.74674 7.88366C1.23605 10.1686 0 12.1369 0 12.2577C0 12.3785 0.0915116 12.5707 0.203488 12.685C0.478256 12.9656 5.82442 15.8621 6.06744 15.8621C6.48268 15.8621 6.65593 15.6887 7.57395 14.3548C8.09674 13.5949 8.59488 12.9041 8.68093 12.8195C8.81186 12.6905 8.83721 14.1802 8.83721 22.0211C8.83721 30.951 8.84686 31.3843 9.04988 31.5503C9.24454 31.7094 10.1733 31.7241 20.0202 31.7241C30.2944 31.7241 30.7865 31.7155 30.9704 31.532C31.1464 31.3563 31.1628 30.5437 31.1628 22.0028C31.1628 14.1772 31.1881 12.6905 31.3191 12.8195C31.4051 12.9041 31.9065 13.5997 32.4335 14.3654C33.437 15.8236 33.6742 16.0107 34.229 15.7824C34.8435 15.5294 39.612 12.8793 39.7965 12.6881C39.9084 12.5721 40 12.3785 40 12.2577C40 11.9788 34.648 3.89545 34.1015 3.349C32.9773 2.22479 31.9262 1.77487 28.1323 0.793944L25.0616 0L19.9436 0.00661792L14.8256 0.013341L11.7442 0.823462ZM23.6047 1.50259C23.6047 1.74441 22.9442 2.58982 22.535 2.87177C21.9336 3.28618 21.3202 3.47999 20.4144 3.54165C19.3451 3.61456 18.3937 3.42894 17.7047 3.01285C17.1657 2.68741 16.3953 1.80397 16.3953 1.51131C16.3953 1.39019 17.004 1.36561 20 1.36561C22.8862 1.36561 23.6047 1.39292 23.6047 1.50259ZM14.9857 2.26397C16.242 4.68918 19.7657 5.72852 22.5581 4.49737C23.5647 4.05365 24.5526 3.15519 25.0143 2.26397C25.2104 1.88538 25.379 1.57696 25.3888 1.57854C25.3988 1.58011 26.2703 1.80754 27.3256 2.08402C28.9815 2.51766 29.2417 2.6144 29.2267 2.79015C29.2171 2.90223 29.1256 3.36433 29.0233 3.81719C28.6595 5.42703 28.8386 8.14228 29.411 9.69624C29.6494 10.3433 29.652 10.4743 29.6227 20.3287L29.593 30.306H20H10.407L10.3773 20.3287C10.348 10.4743 10.3506 10.3433 10.589 9.69624C11.1614 8.14228 11.3405 5.42703 10.9767 3.81719C10.8744 3.36433 10.7829 2.90192 10.7733 2.78952C10.7583 2.61346 11.0126 2.51713 12.6163 2.09117C13.6395 1.81952 14.511 1.5923 14.553 1.58642C14.5949 1.58053 14.7897 1.88538 14.9857 2.26397ZM9.30779 3.58987C9.54081 4.37152 9.62593 5.66192 9.52512 6.88246C9.41919 8.16424 9.37779 8.3903 9.10454 9.17531C8.93489 9.66294 6.02674 13.9916 5.82709 14.0538C5.69698 14.0943 1.97674 12.0752 1.97674 11.9642C1.97674 11.7622 6.69186 4.74496 7.07802 4.37226C7.53465 3.93138 8.77872 3.1514 9.02512 3.1514C9.10872 3.1514 9.23593 3.34868 9.30779 3.58987ZM31.8134 3.55815C32.191 3.78179 32.6899 4.14819 32.922 4.37226C33.3081 4.74496 38.0233 11.7622 38.0233 11.9642C38.0233 12.0752 34.303 14.0943 34.1729 14.0538C33.9733 13.9916 31.0651 9.66294 30.8955 9.17531C30.6222 8.3903 30.5808 8.16424 30.4749 6.88246C30.3322 5.1557 30.6008 3.1514 30.9749 3.1514C31.0584 3.1514 31.4357 3.3344 31.8134 3.55815Z" fill="#4851FB"/>
</svg>
