<svg width="40" height="40" viewBox="0 0 40 40" fill="none" xmlns="http://www.w3.org/2000/svg">
<path fill-rule="evenodd" clip-rule="evenodd" d="M22.6718 0.0882936C21.7819 0.482782 21.6307 0.882736 21.6304 2.84227C21.63 4.69888 21.7429 5.03312 22.4897 5.38749L22.9125 5.58822L22.5115 6.30858C21.9868 7.25119 21.1857 9.23956 20.6282 10.9832C20.3828 11.7508 20.1706 12.3976 20.1567 12.4204C20.1427 12.4433 19.8471 12.2993 19.4998 12.1005C19.1524 11.9018 18.7529 11.7392 18.612 11.7392C18.4609 11.7392 18.0852 11.9975 17.6949 12.3698L17.0338 13.0005L16.5697 12.647C15.8522 12.1007 14.3313 11.4081 13.431 11.2176C9.07461 10.2961 4.87145 12.9802 3.83244 17.347C3.70638 17.8768 3.57626 18.4999 3.54335 18.7318L3.48346 19.1535L2.49573 19.2053C1.63719 19.2504 1.44485 19.3017 1.0246 19.5978C0.75865 19.785 0.419327 20.1689 0.270598 20.4508C0.0212803 20.9231 0 21.1041 0 22.7515C0 24.6554 0.0966336 25.1147 0.616083 25.6798C0.935056 26.0268 1.69847 26.387 2.12222 26.3904L2.44201 26.3929V27.7582V29.1234L3.79441 33.5441C4.5383 35.9755 5.24497 38.1596 5.36497 38.3976C5.67906 39.0208 6.27491 39.6611 6.70994 39.8429C7.0181 39.9716 9.42638 40 20.0603 40C32.785 40 33.0433 39.9956 33.4883 39.7684C34.0053 39.5047 34.4342 38.9903 34.701 38.3137C34.802 38.0578 35.4867 35.8867 36.2225 33.4891L37.5604 29.1297V27.7613V26.3929H37.8548C38.2475 26.3929 38.9451 26.0934 39.2893 25.7768C39.8809 25.233 39.997 24.7422 39.9998 22.7768C40.0022 21.1003 39.9819 20.9248 39.7318 20.4508C39.5831 20.1689 39.2385 19.7813 38.9662 19.5894C38.4831 19.2489 38.4325 19.2396 36.8692 19.2006L35.2672 19.1609L35.202 17.6887C35.1661 16.8792 35.027 15.6934 34.8928 15.0537C34.376 12.5895 33.0109 8.56468 32.0266 6.60247L31.5207 5.59438L31.9425 5.37539C32.658 5.00405 32.7928 4.59363 32.7922 2.78598C32.7917 1.02276 32.6746 0.666303 31.9506 0.224946C31.5896 0.00479047 31.365 -0.0057928 27.2109 0.00153408C24.8125 0.00583717 22.77 0.0447975 22.6718 0.0882936ZM31.1647 2.78412V3.94712H27.2109H23.2572V2.78412V1.62112H27.2109H31.1647V2.78412ZM29.75 5.86815C29.8768 6.02923 30.2213 6.62747 30.5158 7.19757C32.1077 10.2804 33.6067 15.5594 33.6067 18.0835V19.1824H32.8085H32.0104L29.5815 17.8129C28.2458 17.0598 25.91 15.7423 24.391 14.8852C22.8364 14.0078 21.6292 13.2553 21.6292 13.1634C21.6292 13.0735 21.9197 12.1297 22.2748 11.066C22.9666 8.99359 24.062 6.56932 24.585 5.95328L24.9059 5.57531H27.2128H29.5198L29.75 5.86815ZM13.372 12.8423C14.1041 13.0372 15.3737 13.6542 15.6336 13.9413C15.7944 14.119 15.58 14.353 13.1432 16.6591L10.4768 19.1824H7.78954H5.10228L5.1767 18.6299C5.54742 15.8775 7.15985 13.8176 9.58988 12.9919C10.3469 12.7347 10.7332 12.6744 11.6286 12.6734C12.2362 12.6728 13.0208 12.7488 13.372 12.8423ZM23.7398 16.3621L28.6251 19.1242L24.7287 19.1548C22.5855 19.1717 19.0387 19.1717 16.8466 19.1548L12.861 19.1242L15.7625 16.3659C17.3582 14.8488 18.7068 13.6059 18.7591 13.6038C18.8116 13.6017 21.0528 14.843 23.7398 16.3621ZM38.1617 21.003C38.3481 21.1718 38.3744 21.3932 38.3744 22.7974C38.3744 24.0986 38.3401 24.4335 38.1917 24.582C38.0272 24.7466 36.2168 24.7647 20.0012 24.7647C3.78557 24.7647 1.97523 24.7466 1.81069 24.582C1.53532 24.3065 1.54335 21.3294 1.82046 21.0233C2.00535 20.8189 2.72144 20.8106 19.981 20.8106C36.5373 20.8106 37.9658 20.8257 38.1617 21.003ZM9.65174 31.3556C9.65174 35.8102 9.67139 36.34 9.84419 36.5309C10.0129 36.7173 10.2343 36.7436 11.64 36.7436C13.1651 36.7436 13.2523 36.7309 13.4244 36.4851C13.5814 36.2611 13.6055 35.5717 13.6055 31.3097V26.3929H14.4195H15.2335V31.3556C15.2335 35.8102 15.2531 36.34 15.4259 36.5309C15.5947 36.7173 15.8161 36.7436 17.2217 36.7436C18.7468 36.7436 18.834 36.7309 19.0061 36.4851C19.1631 36.2611 19.1872 35.5717 19.1872 31.3097V26.3929H20.0012H20.8152V31.3097C20.8152 35.5717 20.8393 36.2611 20.9963 36.4851C21.1682 36.7307 21.2563 36.7436 22.7604 36.7436C24.0704 36.7436 24.3803 36.7104 24.5562 36.5511C24.756 36.3704 24.7689 36.0555 24.7689 31.3758V26.3929H25.5829H26.3969V31.3097C26.3969 35.5717 26.421 36.2611 26.578 36.4851C26.75 36.7307 26.838 36.7436 28.3422 36.7436C29.6521 36.7436 29.962 36.7104 30.138 36.5511C30.3377 36.3704 30.3507 36.0555 30.3507 31.3758V26.3929H33.1997H36.0487V27.4773C36.0487 28.5302 36.0083 28.6944 34.6651 33.1088C33.9042 35.6097 33.1865 37.8169 33.0702 38.0138L32.8588 38.3718H20.0762C8.04095 38.3718 7.28416 38.3599 7.13299 38.1683C6.76994 37.708 6.57505 37.156 5.29334 32.9588C3.99222 28.698 3.95373 28.5408 3.95373 27.4826V26.3929H6.80273H9.65174V31.3556ZM11.9775 30.8197V35.2465L11.5995 35.21L11.2216 35.1736L11.1911 30.7833L11.1607 26.3929H11.5691H11.9775V30.8197ZM17.5592 30.8197V35.2465L17.1813 35.21L16.8033 35.1736L16.7727 30.9291C16.756 28.5947 16.7674 26.619 16.7982 26.5388C16.829 26.4585 17.0128 26.3929 17.2067 26.3929H17.5592V30.8197ZM23.1991 30.8123V35.1736L22.8211 35.21L22.4432 35.2465V30.8123V26.3782L22.8211 26.4147L23.1991 26.4511V30.8123ZM28.8113 30.7833L28.7808 35.1736L28.4029 35.21L28.0249 35.2465V30.8197V26.3929H28.4333H28.8417L28.8113 30.7833Z" fill="#01D9A0"/>
</svg>
